{"glyphs":{"0":{"ha":831,"x_min":42,"x_max":789,"o":"m 416 -18 q 260 21 329 -18 q 142 130 192 60 q 67 291 93 199 q 42 486 42 382 q 67 682 42 590 q 142 843 93 774 q 260 951 192 912 q 416 990 329 990 q 571 951 502 990 q 689 843 640 912 q 763 682 737 774 q 789 486 789 590 q 763 291 789 382 q 689 130 737 199 q 571 21 640 60 q 416 -18 502 -18 m 416 99 q 561 152 503 99 q 649 294 620 206 q 678 486 678 383 q 648 683 678 595 q 559 822 618 771 q 416 874 501 874 q 300 842 349 874 q 217 757 250 811 q 168 633 185 703 q 152 486 152 563 q 182 294 152 383 q 270 152 212 206 q 416 99 329 99 z "},"1":{"ha":392,"x_min":56,"x_max":281,"o":"m 165 0 l 165 856 l 56 856 l 88 972 l 281 972 l 281 0 l 165 0 z "},"2":{"ha":767,"x_min":56,"x_max":683,"o":"m 56 0 l 56 103 q 176 211 109 151 q 309 335 242 270 q 431 464 375 400 q 520 585 486 528 q 554 685 554 642 q 529 780 554 737 q 462 848 504 822 q 369 874 420 874 q 275 848 317 874 q 207 780 232 822 q 181 685 181 737 l 65 685 q 106 840 65 771 q 217 950 148 909 q 369 990 285 990 q 520 949 452 990 q 630 839 589 908 q 671 685 671 770 q 647 581 671 637 q 583 466 624 525 q 490 347 542 407 q 380 228 438 287 q 265 117 322 170 l 683 117 l 683 0 l 56 0 z "},"3":{"ha":690,"x_min":42,"x_max":649,"o":"m 344 -18 q 188 22 256 -18 q 81 129 119 62 q 42 278 42 196 l 158 278 q 181 188 158 228 q 246 123 204 147 q 344 99 288 99 q 436 123 394 99 q 506 188 479 147 q 532 278 532 228 q 500 381 532 340 q 413 443 469 422 q 285 463 357 463 l 285 557 q 443 598 384 557 q 503 719 503 639 q 480 797 503 761 q 420 853 457 832 q 340 874 383 874 q 258 853 297 874 q 193 797 218 832 q 168 719 168 761 l 51 719 q 75 824 51 775 q 139 911 98 874 q 231 970 179 949 q 339 991 282 991 q 477 954 413 991 q 580 856 541 917 q 619 719 619 794 q 585 594 619 651 q 493 515 551 538 q 578 461 544 497 q 631 377 613 424 q 649 278 649 330 q 607 129 649 197 q 495 22 565 62 q 344 -18 426 -18 z "},"4":{"ha":770,"x_min":56,"x_max":687,"o":"m 474 0 l 474 263 l 56 263 l 56 381 l 444 972 l 590 972 l 590 379 l 687 379 l 687 263 l 590 263 l 590 0 l 474 0 m 192 381 l 474 379 l 472 808 l 192 381 z "},"5":{"ha":776,"x_min":49,"x_max":693,"o":"m 372 -18 q 208 26 281 -18 q 91 143 134 69 q 49 304 49 216 l 165 304 q 193 201 165 248 q 268 126 221 154 q 372 99 315 99 q 474 126 428 99 q 549 201 521 154 q 576 304 576 248 q 550 408 576 360 q 474 483 524 455 q 353 511 424 511 l 113 511 l 208 972 l 669 972 l 669 856 l 302 856 l 257 628 l 358 627 q 532 583 457 625 q 650 469 608 541 q 693 304 693 397 q 668 180 693 238 q 599 76 643 121 q 496 7 554 32 q 372 -18 438 -18 z "},"6":{"ha":752,"x_min":35,"x_max":710,"o":"m 372 -18 q 203 28 279 -18 q 81 150 126 74 q 35 320 35 227 q 47 411 35 372 q 83 495 59 450 l 358 972 l 494 972 l 297 631 q 416 644 357 650 q 528 613 475 639 q 622 543 581 586 q 687 443 663 500 q 710 320 710 387 q 684 189 710 250 q 611 81 657 128 q 503 8 565 35 q 372 -18 441 -18 m 372 99 q 486 130 435 99 q 565 212 536 161 q 594 320 594 263 q 564 431 594 381 q 484 511 535 481 q 373 541 434 541 q 259 510 309 541 q 180 428 209 478 q 151 320 151 378 q 182 207 151 257 q 263 128 213 157 q 372 99 313 99 z "},"7":{"ha":748,"x_min":28,"x_max":720,"o":"m 92 0 l 585 856 l 28 856 l 28 972 l 720 972 l 720 856 l 226 0 l 92 0 z "},"8":{"ha":738,"x_min":56,"x_max":683,"o":"m 369 -18 q 211 22 282 -18 q 98 127 140 61 q 56 274 56 194 q 95 412 56 349 q 199 512 135 475 q 113 600 147 545 q 79 720 79 656 q 118 856 79 795 q 223 954 158 917 q 369 990 289 990 q 514 954 449 990 q 619 856 580 917 q 658 720 658 795 q 625 600 658 656 q 538 512 592 545 q 643 412 604 475 q 683 274 683 349 q 640 128 683 194 q 527 22 598 61 q 369 -18 456 -18 m 369 99 q 464 122 422 99 q 533 186 507 146 q 558 274 558 226 q 533 363 558 324 q 464 426 507 403 q 369 450 422 450 q 274 426 317 450 q 205 363 231 403 q 179 274 179 324 q 205 186 179 226 q 274 122 231 146 q 369 99 317 99 m 369 567 q 452 588 415 567 q 512 643 490 608 q 535 720 535 678 q 512 798 535 763 q 452 853 490 832 q 369 874 415 874 q 285 853 323 874 q 225 798 248 832 q 203 720 203 763 q 225 643 203 678 q 285 588 248 608 q 369 567 323 567 z "},"9":{"ha":740,"x_min":42,"x_max":698,"o":"m 233 0 l 440 358 q 297 351 367 337 q 169 408 226 365 q 76 516 111 451 q 42 661 42 581 q 67 789 42 729 q 138 894 93 849 q 243 965 183 939 q 370 990 302 990 q 534 946 460 990 q 653 827 608 901 q 698 661 698 752 q 686 574 698 612 q 649 492 674 536 l 367 0 l 233 0 m 369 449 q 479 479 431 449 q 555 557 527 508 q 582 661 582 606 q 553 770 582 722 q 475 846 524 818 q 370 874 426 874 q 260 844 308 874 q 184 766 212 815 q 157 661 157 717 q 185 555 157 603 q 261 478 213 506 q 369 449 310 449 z "},"A":{"ha":959,"x_min":56,"x_max":903,"o":"m 409 972 l 550 972 l 903 0 l 780 0 l 708 199 l 251 199 l 180 0 l 56 0 l 409 972 m 294 315 l 665 315 l 479 823 l 294 315 z "},"Á":{"ha":959,"x_min":56,"x_max":903,"o":"m 409 972 l 550 972 l 903 0 l 780 0 l 708 199 l 251 199 l 180 0 l 56 0 l 409 972 m 294 315 l 665 315 l 479 823 l 294 315 m 463 1068 l 519 1268 l 635 1268 l 521 1068 l 463 1068 z "},"Â":{"ha":959,"x_min":56,"x_max":903,"o":"m 409 972 l 550 972 l 903 0 l 780 0 l 708 199 l 251 199 l 180 0 l 56 0 l 409 972 m 294 315 l 665 315 l 479 823 l 294 315 m 425 1250 l 535 1250 l 604 1088 l 525 1088 l 480 1196 l 434 1088 l 355 1088 l 425 1250 z "},"Ä":{"ha":959,"x_min":56,"x_max":903,"o":"m 409 972 l 550 972 l 903 0 l 780 0 l 708 199 l 251 199 l 180 0 l 56 0 l 409 972 m 294 315 l 665 315 l 479 823 l 294 315 m 363 1065 q 317 1083 336 1065 q 297 1128 297 1101 q 317 1174 297 1155 q 363 1193 336 1193 q 408 1174 390 1193 q 427 1128 427 1155 q 408 1083 427 1101 q 363 1065 390 1065 m 597 1065 q 550 1083 569 1065 q 531 1128 531 1101 q 550 1174 531 1155 q 597 1193 569 1193 q 642 1174 623 1193 q 661 1128 661 1155 q 642 1083 661 1101 q 597 1065 623 1065 z "},"À":{"ha":959,"x_min":56,"x_max":903,"o":"m 409 972 l 550 972 l 903 0 l 780 0 l 708 199 l 251 199 l 180 0 l 56 0 l 409 972 m 294 315 l 665 315 l 479 823 l 294 315 m 333 1268 l 449 1268 l 505 1068 l 447 1068 l 333 1268 z "},"Å":{"ha":959,"x_min":56,"x_max":903,"o":"m 409 972 l 550 972 l 903 0 l 780 0 l 708 199 l 251 199 l 180 0 l 56 0 l 409 972 m 294 315 l 665 315 l 479 823 l 294 315 m 479 1037 q 398 1072 431 1037 q 364 1153 364 1106 q 380 1210 364 1185 q 421 1252 395 1236 q 479 1268 447 1268 q 560 1234 526 1268 q 594 1153 594 1200 q 560 1071 594 1105 q 479 1037 526 1037 m 479 1090 q 524 1108 506 1090 q 542 1153 542 1126 q 524 1197 542 1178 q 479 1215 506 1215 q 435 1197 453 1215 q 417 1153 417 1178 q 435 1108 417 1126 q 479 1090 453 1090 z "},"Ã":{"ha":959,"x_min":56,"x_max":903,"o":"m 409 972 l 550 972 l 903 0 l 780 0 l 708 199 l 251 199 l 180 0 l 56 0 l 409 972 m 294 315 l 665 315 l 479 823 l 294 315 m 587 1049 q 529 1066 561 1049 q 464 1104 497 1083 q 405 1140 431 1126 q 363 1149 378 1154 q 339 1126 347 1143 q 338 1083 331 1108 l 263 1063 q 258 1144 248 1106 q 297 1206 267 1183 q 370 1230 326 1230 q 428 1215 397 1230 q 492 1180 460 1199 q 551 1145 524 1160 q 594 1130 578 1130 q 617 1141 609 1130 q 625 1167 624 1152 q 621 1195 626 1183 l 697 1219 q 701 1135 712 1174 q 660 1073 690 1097 q 587 1049 630 1049 z "},"Æ":{"ha":1135,"x_min":56,"x_max":1066,"o":"m 56 0 l 409 972 l 1066 972 l 1066 856 l 683 856 l 683 544 l 999 544 l 999 428 l 683 428 l 683 117 l 1066 117 l 1066 0 l 567 0 l 567 199 l 251 199 l 180 0 l 56 0 m 294 315 l 567 315 l 567 856 l 492 856 l 294 315 z "},"B":{"ha":785,"x_min":83,"x_max":730,"o":"m 83 0 l 83 972 l 419 972 q 550 943 491 972 q 644 857 610 913 q 679 722 679 801 q 665 641 679 680 q 626 573 651 601 q 570 535 601 545 q 644 496 614 524 q 694 431 675 468 q 722 352 713 393 q 730 273 730 311 q 693 131 730 192 q 596 35 657 69 q 461 0 535 0 l 83 0 m 200 103 l 451 103 q 538 127 499 103 q 601 195 577 152 q 624 292 624 238 q 601 383 624 340 q 538 452 577 426 q 451 478 499 478 l 200 478 l 200 103 m 200 579 l 408 579 q 517 617 472 579 q 563 723 563 655 q 517 833 563 797 q 408 869 472 869 l 200 869 l 200 579 z "},"C":{"ha":971,"x_min":42,"x_max":901,"o":"m 519 -18 q 334 21 421 -18 q 182 130 247 60 q 79 290 116 199 q 42 486 42 382 q 79 682 42 590 q 182 843 116 774 q 334 951 247 912 q 519 990 421 990 q 737 935 638 990 q 901 790 836 881 l 798 734 q 675 836 749 798 q 519 874 601 874 q 378 843 444 874 q 263 759 313 813 q 186 635 214 706 q 158 486 158 565 q 186 336 158 406 q 264 213 215 266 q 380 129 314 159 q 519 99 445 99 q 677 137 604 99 q 798 238 749 176 l 901 182 q 737 36 836 91 q 519 -18 638 -18 z "},"Ç":{"ha":971,"x_min":42,"x_max":901,"o":"m 519 -18 q 334 21 421 -18 q 182 130 247 60 q 79 290 116 199 q 42 486 42 382 q 79 682 42 590 q 182 843 116 774 q 334 951 247 912 q 519 990 421 990 q 737 935 638 990 q 901 790 836 881 l 798 734 q 675 836 749 798 q 519 874 601 874 q 378 843 444 874 q 263 759 313 813 q 186 635 214 706 q 158 486 158 565 q 186 336 158 406 q 264 213 215 266 q 380 129 314 159 q 519 99 445 99 q 677 137 604 99 q 798 238 749 176 l 901 182 q 737 36 836 91 q 519 -18 638 -18 m 335 -226 l 335 -135 l 386 -135 q 465 -112 428 -135 q 524 -54 501 -90 q 546 24 546 -17 l 546 76 l 637 76 l 637 26 q 603 -101 637 -44 q 512 -192 569 -158 q 385 -226 454 -226 l 335 -226 z "},"D":{"ha":933,"x_min":83,"x_max":891,"o":"m 83 0 l 83 972 l 405 972 q 594 934 506 972 q 749 830 682 897 q 853 675 815 763 q 891 486 891 587 q 853 298 891 385 q 749 143 815 210 q 594 38 682 76 q 405 0 506 0 l 83 0 m 200 117 l 405 117 q 548 145 481 117 q 666 225 615 174 q 745 343 717 276 q 774 486 774 410 q 745 630 774 563 q 666 747 717 697 q 548 827 615 798 q 405 856 481 856 l 200 856 l 200 117 z "},"Ð":{"ha":1011,"x_min":69,"x_max":969,"o":"m 162 0 l 162 463 l 69 463 l 69 579 l 162 579 l 162 972 l 483 972 q 672 934 584 972 q 827 830 760 897 q 932 675 894 763 q 969 486 969 587 q 932 298 969 385 q 827 143 894 210 q 672 38 760 76 q 483 0 584 0 l 162 0 m 278 117 l 483 117 q 628 145 561 117 q 745 226 695 174 q 824 344 796 278 q 853 486 853 411 q 824 631 853 563 q 743 748 794 698 q 626 827 692 799 q 483 856 559 856 l 278 856 l 278 579 l 506 579 l 506 463 l 278 463 l 278 117 z "},"E":{"ha":749,"x_min":83,"x_max":680,"o":"m 83 0 l 83 972 l 680 972 l 680 856 l 200 856 l 200 579 l 593 579 l 593 463 l 200 463 l 200 117 l 680 117 l 680 0 l 83 0 z "},"É":{"ha":749,"x_min":83,"x_max":680,"o":"m 83 0 l 83 972 l 680 972 l 680 856 l 200 856 l 200 579 l 593 579 l 593 463 l 200 463 l 200 117 l 680 117 l 680 0 l 83 0 m 359 1068 l 415 1268 l 531 1268 l 417 1068 l 359 1068 z "},"Ê":{"ha":749,"x_min":83,"x_max":680,"o":"m 83 0 l 83 972 l 680 972 l 680 856 l 200 856 l 200 579 l 593 579 l 593 463 l 200 463 l 200 117 l 680 117 l 680 0 l 83 0 m 320 1250 l 430 1250 l 499 1088 l 420 1088 l 375 1196 l 329 1088 l 250 1088 l 320 1250 z "},"Ë":{"ha":749,"x_min":83,"x_max":680,"o":"m 83 0 l 83 972 l 680 972 l 680 856 l 200 856 l 200 579 l 593 579 l 593 463 l 200 463 l 200 117 l 680 117 l 680 0 l 83 0 m 258 1065 q 212 1083 231 1065 q 192 1128 192 1101 q 212 1174 192 1155 q 258 1193 231 1193 q 303 1174 285 1193 q 322 1128 322 1155 q 303 1083 322 1101 q 258 1065 285 1065 m 492 1065 q 445 1083 465 1065 q 426 1128 426 1101 q 445 1174 426 1155 q 492 1193 465 1193 q 537 1174 518 1193 q 556 1128 556 1155 q 537 1083 556 1101 q 492 1065 518 1065 z "},"È":{"ha":749,"x_min":83,"x_max":680,"o":"m 83 0 l 83 972 l 680 972 l 680 856 l 200 856 l 200 579 l 593 579 l 593 463 l 200 463 l 200 117 l 680 117 l 680 0 l 83 0 m 228 1268 l 344 1268 l 400 1068 l 342 1068 l 228 1268 z "},"F":{"ha":667,"x_min":83,"x_max":653,"o":"m 83 0 l 83 972 l 653 972 l 653 856 l 200 856 l 200 579 l 587 579 l 587 463 l 200 463 l 200 0 l 83 0 z "},"G":{"ha":1039,"x_min":42,"x_max":997,"o":"m 520 -18 q 332 21 419 -18 q 180 130 245 60 q 78 291 115 200 q 42 487 42 383 q 80 686 42 594 q 186 846 119 778 q 339 952 253 914 q 522 990 426 990 q 731 938 632 990 q 902 790 831 887 l 798 733 q 671 838 744 801 q 521 874 598 874 q 382 844 447 874 q 266 760 316 814 q 187 637 215 707 q 158 485 158 567 q 187 335 158 405 q 265 211 215 265 q 381 128 315 158 q 522 99 447 99 q 635 119 581 99 q 734 176 689 139 q 812 263 780 213 q 861 372 844 313 l 622 372 l 622 476 l 997 476 q 959 285 997 374 q 855 127 921 195 q 704 20 790 59 q 520 -18 618 -18 z "},"H":{"ha":881,"x_min":83,"x_max":798,"o":"m 681 972 l 798 972 l 798 0 l 681 0 l 681 463 l 200 463 l 200 0 l 83 0 l 83 972 l 200 972 l 200 579 l 681 579 l 681 972 z "},"I":{"ha":325,"x_min":104,"x_max":221,"o":"m 104 0 l 104 972 l 221 972 l 221 0 l 104 0 z "},"Í":{"ha":325,"x_min":104,"x_max":319,"o":"m 104 0 l 104 972 l 221 972 l 221 0 l 104 0 m 147 1068 l 202 1268 l 319 1268 l 204 1068 l 147 1068 z "},"Î":{"ha":325,"x_min":38,"x_max":288,"o":"m 104 0 l 104 972 l 221 972 l 221 0 l 104 0 m 108 1250 l 218 1250 l 288 1088 l 208 1088 l 163 1196 l 117 1088 l 38 1088 l 108 1250 z "},"Ï":{"ha":325,"x_min":-19,"x_max":344,"o":"m 104 0 l 104 972 l 221 972 l 221 0 l 104 0 m 47 1065 q 0 1083 19 1065 q -19 1128 -19 1101 q 0 1174 -19 1155 q 47 1193 19 1193 q 92 1174 73 1193 q 110 1128 110 1155 q 92 1083 110 1101 q 47 1065 73 1065 m 280 1065 q 234 1083 253 1065 q 215 1128 215 1101 q 234 1174 215 1155 q 280 1193 253 1193 q 325 1174 306 1193 q 344 1128 344 1155 q 325 1083 344 1101 q 280 1065 306 1065 z "},"Ì":{"ha":325,"x_min":16,"x_max":221,"o":"m 104 0 l 104 972 l 221 972 l 221 0 l 104 0 m 16 1268 l 133 1268 l 188 1068 l 131 1068 l 16 1268 z "},"J":{"ha":574,"x_min":28,"x_max":490,"o":"m 208 -18 q 113 -2 159 -18 q 28 47 66 15 l 102 138 q 149 109 122 120 q 208 99 176 99 q 291 123 253 99 q 351 187 328 147 q 374 272 374 226 l 374 972 l 490 972 l 490 272 q 452 128 490 194 q 350 22 414 63 q 208 -18 286 -18 z "},"K":{"ha":760,"x_min":83,"x_max":735,"o":"m 731 0 l 580 0 l 273 422 l 200 334 l 200 0 l 83 0 l 83 972 l 200 972 l 200 515 l 583 972 l 735 972 l 349 513 l 731 0 z "},"L":{"ha":705,"x_min":83,"x_max":635,"o":"m 83 0 l 83 972 l 200 972 l 200 117 l 635 117 l 635 0 l 83 0 z "},"M":{"ha":1247,"x_min":83,"x_max":1164,"o":"m 83 0 l 272 972 l 361 972 l 624 282 l 885 972 l 975 972 l 1164 0 l 1045 0 l 908 706 l 662 53 l 585 53 l 338 706 l 202 0 l 83 0 z "},"N":{"ha":918,"x_min":95,"x_max":824,"o":"m 95 0 l 95 972 l 222 972 l 707 211 l 707 972 l 824 972 l 824 0 l 698 0 l 211 761 l 211 0 l 95 0 z "},"Ñ":{"ha":918,"x_min":95,"x_max":824,"o":"m 95 0 l 95 972 l 222 972 l 707 211 l 707 972 l 824 972 l 824 0 l 698 0 l 211 761 l 211 0 l 95 0 m 567 1049 q 509 1066 541 1049 q 444 1104 476 1083 q 384 1140 411 1126 q 342 1149 358 1154 q 318 1126 326 1143 q 317 1083 310 1108 l 242 1063 q 238 1144 228 1106 q 277 1206 247 1183 q 350 1230 306 1230 q 408 1215 376 1230 q 472 1180 440 1199 q 531 1145 504 1160 q 574 1130 558 1130 q 597 1141 589 1130 q 605 1167 604 1152 q 601 1195 606 1183 l 676 1219 q 681 1135 692 1174 q 640 1073 670 1097 q 567 1049 610 1049 z "},"O":{"ha":1069,"x_min":56,"x_max":1014,"o":"m 535 -18 q 349 21 436 -18 q 197 130 263 60 q 93 291 131 199 q 56 486 56 382 q 93 682 56 590 q 197 842 131 773 q 349 951 263 912 q 535 990 436 990 q 721 951 634 990 q 874 842 808 912 q 977 682 940 773 q 1014 486 1014 590 q 977 291 1014 382 q 874 130 940 199 q 721 21 808 60 q 535 -18 634 -18 m 535 99 q 676 129 610 99 q 791 214 742 160 q 869 337 841 267 q 897 486 897 407 q 869 636 897 565 q 791 759 840 706 q 675 843 741 813 q 535 874 610 874 q 393 843 459 874 q 278 759 328 813 q 200 635 228 705 q 172 486 172 565 q 201 336 172 406 q 279 213 229 266 q 394 129 328 159 q 535 99 460 99 z "},"Ó":{"ha":1069,"x_min":56,"x_max":1014,"o":"m 535 -18 q 349 21 436 -18 q 197 130 263 60 q 93 291 131 199 q 56 486 56 382 q 93 682 56 590 q 197 842 131 773 q 349 951 263 912 q 535 990 436 990 q 721 951 634 990 q 874 842 808 912 q 977 682 940 773 q 1014 486 1014 590 q 977 291 1014 382 q 874 130 940 199 q 721 21 808 60 q 535 -18 634 -18 m 535 99 q 676 129 610 99 q 791 214 742 160 q 869 337 841 267 q 897 486 897 407 q 869 636 897 565 q 791 759 840 706 q 675 843 741 813 q 535 874 610 874 q 393 843 459 874 q 278 759 328 813 q 200 635 228 705 q 172 486 172 565 q 201 336 172 406 q 279 213 229 266 q 394 129 328 159 q 535 99 460 99 m 519 1068 l 574 1268 l 691 1268 l 576 1068 l 519 1068 z "},"Ô":{"ha":1069,"x_min":56,"x_max":1014,"o":"m 535 -18 q 349 21 436 -18 q 197 130 263 60 q 93 291 131 199 q 56 486 56 382 q 93 682 56 590 q 197 842 131 773 q 349 951 263 912 q 535 990 436 990 q 721 951 634 990 q 874 842 808 912 q 977 682 940 773 q 1014 486 1014 590 q 977 291 1014 382 q 874 130 940 199 q 721 21 808 60 q 535 -18 634 -18 m 535 99 q 676 129 610 99 q 791 214 742 160 q 869 337 841 267 q 897 486 897 407 q 869 636 897 565 q 791 759 840 706 q 675 843 741 813 q 535 874 610 874 q 393 843 459 874 q 278 759 328 813 q 200 635 228 705 q 172 486 172 565 q 201 336 172 406 q 279 213 229 266 q 394 129 328 159 q 535 99 460 99 m 481 1250 l 590 1250 l 660 1088 l 581 1088 l 535 1196 l 490 1088 l 410 1088 l 481 1250 z "},"Ö":{"ha":1069,"x_min":56,"x_max":1014,"o":"m 535 -18 q 349 21 436 -18 q 197 130 263 60 q 93 291 131 199 q 56 486 56 382 q 93 682 56 590 q 197 842 131 773 q 349 951 263 912 q 535 990 436 990 q 721 951 634 990 q 874 842 808 912 q 977 682 940 773 q 1014 486 1014 590 q 977 291 1014 382 q 874 130 940 199 q 721 21 808 60 q 535 -18 634 -18 m 535 99 q 676 129 610 99 q 791 214 742 160 q 869 337 841 267 q 897 486 897 407 q 869 636 897 565 q 791 759 840 706 q 675 843 741 813 q 535 874 610 874 q 393 843 459 874 q 278 759 328 813 q 200 635 228 705 q 172 486 172 565 q 201 336 172 406 q 279 213 229 266 q 394 129 328 159 q 535 99 460 99 m 419 1065 q 372 1083 392 1065 q 353 1128 353 1101 q 372 1174 353 1155 q 419 1193 392 1193 q 464 1174 445 1193 q 483 1128 483 1155 q 464 1083 483 1101 q 419 1065 445 1065 m 652 1065 q 606 1083 625 1065 q 587 1128 587 1101 q 606 1174 587 1155 q 652 1193 625 1193 q 698 1174 678 1193 q 717 1128 717 1155 q 698 1083 717 1101 q 652 1065 678 1065 z "},"Ò":{"ha":1069,"x_min":56,"x_max":1014,"o":"m 535 -18 q 349 21 436 -18 q 197 130 263 60 q 93 291 131 199 q 56 486 56 382 q 93 682 56 590 q 197 842 131 773 q 349 951 263 912 q 535 990 436 990 q 721 951 634 990 q 874 842 808 912 q 977 682 940 773 q 1014 486 1014 590 q 977 291 1014 382 q 874 130 940 199 q 721 21 808 60 q 535 -18 634 -18 m 535 99 q 676 129 610 99 q 791 214 742 160 q 869 337 841 267 q 897 486 897 407 q 869 636 897 565 q 791 759 840 706 q 675 843 741 813 q 535 874 610 874 q 393 843 459 874 q 278 759 328 813 q 200 635 228 705 q 172 486 172 565 q 201 336 172 406 q 279 213 229 266 q 394 129 328 159 q 535 99 460 99 m 388 1268 l 505 1268 l 560 1068 l 503 1068 l 388 1268 z "},"Ø":{"ha":1069,"x_min":56,"x_max":1014,"o":"m 287 -62 l 185 -3 l 240 92 q 107 264 158 160 q 56 486 56 367 q 93 682 56 590 q 197 842 131 773 q 349 951 263 912 q 535 990 436 990 q 638 978 588 990 q 732 944 688 966 l 784 1034 l 885 976 l 831 881 q 964 710 914 813 q 1014 486 1014 607 q 977 291 1014 382 q 874 130 940 199 q 721 21 808 60 q 535 -18 634 -18 q 433 -6 483 -18 q 339 28 384 7 l 287 -62 m 301 199 l 673 840 q 607 865 642 856 q 535 874 572 874 q 393 843 459 874 q 278 759 328 813 q 200 635 228 705 q 172 486 172 565 q 208 324 172 399 q 301 199 243 249 m 535 99 q 676 129 610 99 q 791 214 742 160 q 869 337 841 267 q 897 486 897 407 q 863 648 897 573 q 769 774 828 723 l 398 132 q 464 107 429 116 q 535 99 499 99 z "},"Õ":{"ha":1069,"x_min":56,"x_max":1014,"o":"m 535 -18 q 349 21 436 -18 q 197 130 263 60 q 93 291 131 199 q 56 486 56 382 q 93 682 56 590 q 197 842 131 773 q 349 951 263 912 q 535 990 436 990 q 721 951 634 990 q 874 842 808 912 q 977 682 940 773 q 1014 486 1014 590 q 977 291 1014 382 q 874 130 940 199 q 721 21 808 60 q 535 -18 634 -18 m 535 99 q 676 129 610 99 q 791 214 742 160 q 869 337 841 267 q 897 486 897 407 q 869 636 897 565 q 791 759 840 706 q 675 843 741 813 q 535 874 610 874 q 393 843 459 874 q 278 759 328 813 q 200 635 228 705 q 172 486 172 565 q 201 336 172 406 q 279 213 229 266 q 394 129 328 159 q 535 99 460 99 m 642 1049 q 584 1066 617 1049 q 519 1104 552 1083 q 460 1140 487 1126 q 418 1149 433 1154 q 394 1126 402 1143 q 393 1083 386 1108 l 318 1063 q 313 1144 303 1106 q 352 1206 323 1183 q 426 1230 382 1230 q 484 1215 452 1230 q 548 1180 515 1199 q 607 1145 580 1160 q 649 1130 633 1130 q 672 1141 665 1130 q 681 1167 680 1152 q 676 1195 681 1183 l 752 1219 q 757 1135 767 1174 q 716 1073 746 1097 q 642 1049 685 1049 z "},"Œ":{"ha":1497,"x_min":56,"x_max":1428,"o":"m 535 -18 q 349 21 436 -18 q 197 130 263 60 q 93 291 131 199 q 56 486 56 382 q 93 682 56 590 q 197 842 131 773 q 349 951 263 912 q 535 990 436 990 q 680 964 611 990 q 805 892 749 938 q 899 785 860 847 l 899 972 l 1428 972 l 1428 856 l 1015 856 l 1015 544 l 1361 544 l 1361 428 l 1015 428 l 1015 117 l 1428 117 l 1428 0 l 899 0 l 899 187 q 805 80 860 126 q 680 8 749 34 q 535 -18 611 -18 m 535 99 q 676 129 610 99 q 791 214 742 160 q 869 337 841 267 q 897 486 897 407 q 869 636 897 565 q 791 759 840 706 q 675 843 741 813 q 535 874 610 874 q 393 843 459 874 q 278 759 328 813 q 200 635 228 705 q 172 486 172 565 q 201 336 172 406 q 279 213 229 266 q 394 129 328 159 q 535 99 460 99 z "},"P":{"ha":738,"x_min":83,"x_max":683,"o":"m 83 0 l 83 972 l 404 972 q 545 934 483 972 q 645 831 608 896 q 683 686 683 766 q 645 540 683 605 q 543 437 607 475 q 404 399 480 399 l 200 399 l 200 0 l 83 0 m 200 516 l 394 516 q 480 539 441 516 q 543 602 519 563 q 566 692 566 642 q 543 783 566 743 q 480 846 519 823 q 394 869 441 869 l 200 869 l 200 516 z "},"Þ":{"ha":738,"x_min":83,"x_max":683,"o":"m 83 0 l 83 972 l 200 972 l 200 772 l 404 772 q 545 734 483 772 q 645 631 608 696 q 683 486 683 566 q 645 341 683 406 q 543 238 607 276 q 404 200 480 200 l 200 200 l 200 0 l 83 0 m 200 317 l 394 317 q 480 340 441 317 q 543 402 519 363 q 566 493 566 442 q 543 583 566 543 q 480 646 519 623 q 394 669 441 669 l 200 669 l 200 317 z "},"Q":{"ha":1082,"x_min":56,"x_max":1026,"o":"m 943 -20 l 829 94 q 694 14 769 42 q 535 -15 619 -15 q 349 24 435 -15 q 196 132 262 63 q 93 293 130 201 q 56 489 56 385 q 93 684 56 593 q 196 845 130 776 q 349 954 262 915 q 535 993 435 993 q 720 954 634 993 q 873 845 807 915 q 976 684 939 776 q 1013 489 1013 593 q 986 321 1013 400 q 910 177 958 242 l 1026 63 l 943 -20 m 535 101 q 647 121 592 101 q 744 178 701 141 l 615 307 l 698 390 l 823 264 q 878 370 859 312 q 897 489 897 428 q 868 639 897 569 q 790 763 840 709 q 675 846 740 816 q 535 876 609 876 q 393 845 459 876 q 278 761 328 815 q 200 637 228 707 q 172 489 172 567 q 201 339 172 409 q 279 215 229 269 q 395 131 329 161 q 535 101 460 101 z "},"R":{"ha":804,"x_min":95,"x_max":737,"o":"m 95 0 l 95 972 l 436 972 q 577 934 515 972 q 677 831 640 896 q 714 686 714 766 q 686 558 714 616 q 610 462 658 501 q 501 409 562 424 l 737 0 l 602 0 l 371 399 l 211 399 l 211 0 l 95 0 m 211 516 l 425 516 q 511 539 472 516 q 574 602 551 563 q 597 692 597 642 q 574 783 597 743 q 511 846 551 823 q 425 869 472 869 l 211 869 l 211 516 z "},"S":{"ha":853,"x_min":69,"x_max":783,"o":"m 426 -18 q 274 7 347 -18 q 147 77 201 31 q 69 186 92 123 l 178 227 q 230 159 192 188 q 319 115 268 131 q 426 99 371 99 q 542 119 488 99 q 629 176 596 140 q 663 263 663 213 q 628 345 663 313 q 539 397 593 378 q 426 426 485 416 q 245 474 325 443 q 120 560 166 505 q 74 707 74 616 q 123 855 74 792 q 252 953 172 918 q 426 988 333 988 q 575 964 503 988 q 703 894 648 940 q 783 782 759 848 l 673 742 q 621 810 659 781 q 532 855 583 839 q 426 870 481 870 q 310 850 364 871 q 224 792 257 829 q 190 707 190 756 q 221 618 190 649 q 306 572 252 587 q 426 544 359 556 q 601 494 520 528 q 730 403 681 460 q 779 263 779 346 q 730 115 779 178 q 601 17 681 51 q 426 -18 520 -18 z "},"ẞ":{"ha":798,"x_min":83,"x_max":756,"o":"m 83 0 l 83 651 q 108 775 83 717 q 177 877 133 833 q 280 947 222 922 q 404 972 338 972 q 533 947 473 972 q 629 878 592 923 q 665 774 665 834 q 647 711 665 743 q 589 631 628 679 q 490 505 550 583 q 587 495 540 511 q 673 446 635 479 q 734 367 711 413 q 756 270 756 322 q 729 153 756 204 q 656 69 701 103 q 556 17 610 35 q 445 0 501 0 l 401 0 l 374 103 l 435 103 q 533 120 483 103 q 617 174 583 137 q 651 272 651 211 q 616 368 651 331 q 532 422 582 405 q 435 438 483 438 l 384 438 l 382 485 q 398 537 382 506 q 438 602 414 567 q 487 670 463 636 q 528 731 511 703 q 544 776 544 759 q 522 832 544 813 q 464 860 499 852 q 385 868 428 868 q 293 842 335 868 q 225 773 251 817 q 200 676 200 730 l 200 0 l 83 0 z "},"T":{"ha":874,"x_min":56,"x_max":819,"o":"m 819 972 l 819 856 l 495 856 l 495 0 l 378 0 l 378 856 l 56 856 l 56 972 l 819 972 z "},"U":{"ha":927,"x_min":83,"x_max":844,"o":"m 464 -18 q 261 39 347 -18 q 130 192 176 96 q 83 406 83 288 l 83 972 l 200 972 l 200 406 q 231 252 200 322 q 320 140 262 182 q 464 99 379 99 q 608 141 550 99 q 697 252 667 183 q 727 406 727 322 l 727 972 l 844 972 l 844 406 q 817 241 844 317 q 741 106 791 164 q 622 15 692 47 q 464 -18 551 -18 z "},"Ú":{"ha":927,"x_min":83,"x_max":844,"o":"m 464 -18 q 261 39 347 -18 q 130 192 176 96 q 83 406 83 288 l 83 972 l 200 972 l 200 406 q 231 252 200 322 q 320 140 262 182 q 464 99 379 99 q 608 141 550 99 q 697 252 667 183 q 727 406 727 322 l 727 972 l 844 972 l 844 406 q 817 241 844 317 q 741 106 791 164 q 622 15 692 47 q 464 -18 551 -18 m 448 1068 l 503 1268 l 620 1268 l 506 1068 l 448 1068 z "},"Û":{"ha":927,"x_min":83,"x_max":844,"o":"m 464 -18 q 261 39 347 -18 q 130 192 176 96 q 83 406 83 288 l 83 972 l 200 972 l 200 406 q 231 252 200 322 q 320 140 262 182 q 464 99 379 99 q 608 141 550 99 q 697 252 667 183 q 727 406 727 322 l 727 972 l 844 972 l 844 406 q 817 241 844 317 q 741 106 791 164 q 622 15 692 47 q 464 -18 551 -18 m 409 1250 l 519 1250 l 588 1088 l 509 1088 l 464 1196 l 418 1088 l 339 1088 l 409 1250 z "},"Ü":{"ha":927,"x_min":83,"x_max":844,"o":"m 464 -18 q 261 39 347 -18 q 130 192 176 96 q 83 406 83 288 l 83 972 l 200 972 l 200 406 q 231 252 200 322 q 320 140 262 182 q 464 99 379 99 q 608 141 550 99 q 697 252 667 183 q 727 406 727 322 l 727 972 l 844 972 l 844 406 q 817 241 844 317 q 741 106 791 164 q 622 15 692 47 q 464 -18 551 -18 m 347 1065 q 301 1083 320 1065 q 281 1128 281 1101 q 301 1174 281 1155 q 347 1193 320 1193 q 392 1174 374 1193 q 411 1128 411 1155 q 392 1083 411 1101 q 347 1065 374 1065 m 581 1065 q 534 1083 553 1065 q 515 1128 515 1101 q 534 1174 515 1155 q 581 1193 553 1193 q 626 1174 607 1193 q 645 1128 645 1155 q 626 1083 645 1101 q 581 1065 607 1065 z "},"Ù":{"ha":927,"x_min":83,"x_max":844,"o":"m 464 -18 q 261 39 347 -18 q 130 192 176 96 q 83 406 83 288 l 83 972 l 200 972 l 200 406 q 231 252 200 322 q 320 140 262 182 q 464 99 379 99 q 608 141 550 99 q 697 252 667 183 q 727 406 727 322 l 727 972 l 844 972 l 844 406 q 817 241 844 317 q 741 106 791 164 q 622 15 692 47 q 464 -18 551 -18 m 317 1268 l 433 1268 l 489 1068 l 431 1068 l 317 1268 z "},"V":{"ha":878,"x_min":14,"x_max":865,"o":"m 367 0 l 14 972 l 138 972 l 439 142 l 740 972 l 865 972 l 510 0 l 367 0 z "},"W":{"ha":1267,"x_min":69,"x_max":1197,"o":"m 318 0 l 69 972 l 190 972 l 386 205 l 581 972 l 685 972 l 881 205 l 1076 972 l 1197 972 l 950 0 l 814 0 l 633 704 l 453 0 l 318 0 z "},"Ẃ":{"ha":1267,"x_min":69,"x_max":1197,"o":"m 318 0 l 69 972 l 190 972 l 386 205 l 581 972 l 685 972 l 881 205 l 1076 972 l 1197 972 l 950 0 l 814 0 l 633 704 l 453 0 l 318 0 m 617 1068 l 673 1268 l 790 1268 l 675 1068 l 617 1068 z "},"Ŵ":{"ha":1267,"x_min":69,"x_max":1197,"o":"m 318 0 l 69 972 l 190 972 l 386 205 l 581 972 l 685 972 l 881 205 l 1076 972 l 1197 972 l 950 0 l 814 0 l 633 704 l 453 0 l 318 0 m 578 1250 l 688 1250 l 758 1088 l 678 1088 l 633 1196 l 588 1088 l 508 1088 l 578 1250 z "},"Ẅ":{"ha":1267,"x_min":69,"x_max":1197,"o":"m 318 0 l 69 972 l 190 972 l 386 205 l 581 972 l 685 972 l 881 205 l 1076 972 l 1197 972 l 950 0 l 814 0 l 633 704 l 453 0 l 318 0 m 517 1065 q 470 1083 490 1065 q 451 1128 451 1101 q 470 1174 451 1155 q 517 1193 490 1193 q 562 1174 543 1193 q 581 1128 581 1155 q 562 1083 581 1101 q 517 1065 543 1065 m 750 1065 q 704 1083 723 1065 q 685 1128 685 1101 q 704 1174 685 1155 q 750 1193 723 1193 q 795 1174 776 1193 q 815 1128 815 1155 q 795 1083 815 1101 q 750 1065 776 1065 z "},"Ẁ":{"ha":1267,"x_min":69,"x_max":1197,"o":"m 318 0 l 69 972 l 190 972 l 386 205 l 581 972 l 685 972 l 881 205 l 1076 972 l 1197 972 l 950 0 l 814 0 l 633 704 l 453 0 l 318 0 m 486 1268 l 603 1268 l 658 1068 l 601 1068 l 486 1268 z "},"X":{"ha":940,"x_min":42,"x_max":898,"o":"m 42 0 l 398 489 l 46 972 l 190 972 l 469 588 l 750 972 l 894 972 l 542 489 l 898 0 l 753 0 l 469 389 l 187 0 l 42 0 z "},"Y":{"ha":858,"x_min":42,"x_max":817,"o":"m 679 972 l 817 972 l 488 440 l 488 0 l 371 0 l 371 440 l 42 972 l 179 972 l 429 567 l 679 972 z "},"Ý":{"ha":858,"x_min":42,"x_max":817,"o":"m 679 972 l 817 972 l 488 440 l 488 0 l 371 0 l 371 440 l 42 972 l 179 972 l 429 567 l 679 972 m 413 1068 l 469 1268 l 585 1268 l 471 1068 l 413 1068 z "},"Ŷ":{"ha":858,"x_min":42,"x_max":817,"o":"m 679 972 l 817 972 l 488 440 l 488 0 l 371 0 l 371 440 l 42 972 l 179 972 l 429 567 l 679 972 m 374 1250 l 484 1250 l 553 1088 l 474 1088 l 429 1196 l 383 1088 l 304 1088 l 374 1250 z "},"Ÿ":{"ha":858,"x_min":42,"x_max":817,"o":"m 679 972 l 817 972 l 488 440 l 488 0 l 371 0 l 371 440 l 42 972 l 179 972 l 429 567 l 679 972 m 313 1065 q 267 1083 286 1065 q 247 1128 247 1101 q 267 1174 247 1155 q 313 1193 286 1193 q 358 1174 340 1193 q 377 1128 377 1155 q 358 1083 377 1101 q 313 1065 340 1065 m 547 1065 q 500 1083 519 1065 q 481 1128 481 1101 q 500 1174 481 1155 q 547 1193 519 1193 q 592 1174 573 1193 q 611 1128 611 1155 q 592 1083 611 1101 q 547 1065 573 1065 z "},"Ỳ":{"ha":858,"x_min":42,"x_max":817,"o":"m 679 972 l 817 972 l 488 440 l 488 0 l 371 0 l 371 440 l 42 972 l 179 972 l 429 567 l 679 972 m 282 1268 l 399 1268 l 454 1068 l 397 1068 l 282 1268 z "},"Z":{"ha":953,"x_min":83,"x_max":869,"o":"m 83 0 l 83 117 l 713 856 l 83 856 l 83 972 l 869 972 l 869 856 l 240 117 l 869 117 l 869 0 l 83 0 z "},"a":{"ha":849,"x_min":49,"x_max":766,"o":"m 649 694 l 766 694 l 766 0 l 649 0 l 644 117 q 555 19 612 57 q 419 -18 497 -18 q 275 11 342 -18 q 157 91 208 40 q 78 208 106 142 q 49 352 49 275 q 77 492 49 426 q 155 608 105 558 q 269 686 204 658 q 409 714 335 714 q 554 675 492 714 q 653 576 616 637 l 649 694 m 422 95 q 541 130 491 95 q 617 223 591 165 q 640 352 643 281 q 608 478 638 422 q 527 567 578 534 q 409 600 476 600 q 284 565 340 600 q 196 472 228 531 q 167 342 165 414 q 206 217 171 274 q 298 128 242 161 q 422 95 355 95 z "},"á":{"ha":849,"x_min":49,"x_max":766,"o":"m 649 694 l 766 694 l 766 0 l 649 0 l 644 117 q 555 19 612 57 q 419 -18 497 -18 q 275 11 342 -18 q 157 91 208 40 q 78 208 106 142 q 49 352 49 275 q 77 492 49 426 q 155 608 105 558 q 269 686 204 658 q 409 714 335 714 q 554 675 492 714 q 653 576 616 637 l 649 694 m 422 95 q 541 130 491 95 q 617 223 591 165 q 640 352 643 281 q 608 478 638 422 q 527 567 578 534 q 409 600 476 600 q 284 565 340 600 q 196 472 228 531 q 167 342 165 414 q 206 217 171 274 q 298 128 242 161 q 422 95 355 95 m 408 790 l 464 990 l 581 990 l 466 790 l 408 790 z "},"â":{"ha":849,"x_min":49,"x_max":766,"o":"m 649 694 l 766 694 l 766 0 l 649 0 l 644 117 q 555 19 612 57 q 419 -18 497 -18 q 275 11 342 -18 q 157 91 208 40 q 78 208 106 142 q 49 352 49 275 q 77 492 49 426 q 155 608 105 558 q 269 686 204 658 q 409 714 335 714 q 554 675 492 714 q 653 576 616 637 l 649 694 m 422 95 q 541 130 491 95 q 617 223 591 165 q 640 352 643 281 q 608 478 638 422 q 527 567 578 534 q 409 600 476 600 q 284 565 340 600 q 196 472 228 531 q 167 342 165 414 q 206 217 171 274 q 298 128 242 161 q 422 95 355 95 m 370 972 l 480 972 l 549 810 l 470 810 l 425 918 l 379 810 l 300 810 l 370 972 z "},"ä":{"ha":849,"x_min":49,"x_max":766,"o":"m 649 694 l 766 694 l 766 0 l 649 0 l 644 117 q 555 19 612 57 q 419 -18 497 -18 q 275 11 342 -18 q 157 91 208 40 q 78 208 106 142 q 49 352 49 275 q 77 492 49 426 q 155 608 105 558 q 269 686 204 658 q 409 714 335 714 q 554 675 492 714 q 653 576 616 637 l 649 694 m 422 95 q 541 130 491 95 q 617 223 591 165 q 640 352 643 281 q 608 478 638 422 q 527 567 578 534 q 409 600 476 600 q 284 565 340 600 q 196 472 228 531 q 167 342 165 414 q 206 217 171 274 q 298 128 242 161 q 422 95 355 95 m 308 787 q 262 805 281 787 q 242 850 242 823 q 262 896 242 877 q 308 915 281 915 q 353 896 335 915 q 372 850 372 877 q 353 805 372 823 q 308 787 335 787 m 542 787 q 495 805 515 787 q 476 850 476 823 q 495 896 476 877 q 542 915 515 915 q 587 896 568 915 q 606 850 606 877 q 587 805 606 823 q 542 787 568 787 z "},"à":{"ha":849,"x_min":49,"x_max":766,"o":"m 649 694 l 766 694 l 766 0 l 649 0 l 644 117 q 555 19 612 57 q 419 -18 497 -18 q 275 11 342 -18 q 157 91 208 40 q 78 208 106 142 q 49 352 49 275 q 77 492 49 426 q 155 608 105 558 q 269 686 204 658 q 409 714 335 714 q 554 675 492 714 q 653 576 616 637 l 649 694 m 422 95 q 541 130 491 95 q 617 223 591 165 q 640 352 643 281 q 608 478 638 422 q 527 567 578 534 q 409 600 476 600 q 284 565 340 600 q 196 472 228 531 q 167 342 165 414 q 206 217 171 274 q 298 128 242 161 q 422 95 355 95 m 278 990 l 394 990 l 450 790 l 392 790 l 278 990 z "},"å":{"ha":849,"x_min":49,"x_max":766,"o":"m 649 694 l 766 694 l 766 0 l 649 0 l 644 117 q 555 19 612 57 q 419 -18 497 -18 q 275 11 342 -18 q 157 91 208 40 q 78 208 106 142 q 49 352 49 275 q 77 492 49 426 q 155 608 105 558 q 269 686 204 658 q 409 714 335 714 q 554 675 492 714 q 653 576 616 637 l 649 694 m 422 95 q 541 130 491 95 q 617 223 591 165 q 640 352 643 281 q 608 478 638 422 q 527 567 578 534 q 409 600 476 600 q 284 565 340 600 q 196 472 228 531 q 167 342 165 414 q 206 217 171 274 q 298 128 242 161 q 422 95 355 95 m 424 759 q 343 794 376 759 q 309 876 309 828 q 325 933 309 907 q 366 974 340 958 q 424 990 392 990 q 506 956 472 990 q 540 876 540 922 q 506 793 540 827 q 424 759 472 759 m 424 812 q 469 830 451 812 q 487 876 487 849 q 469 919 487 901 q 424 937 451 937 q 380 919 399 937 q 362 876 362 901 q 380 830 362 849 q 424 812 399 812 z "},"ã":{"ha":849,"x_min":49,"x_max":766,"o":"m 649 694 l 766 694 l 766 0 l 649 0 l 644 117 q 555 19 612 57 q 419 -18 497 -18 q 275 11 342 -18 q 157 91 208 40 q 78 208 106 142 q 49 352 49 275 q 77 492 49 426 q 155 608 105 558 q 269 686 204 658 q 409 714 335 714 q 554 675 492 714 q 653 576 616 637 l 649 694 m 422 95 q 541 130 491 95 q 617 223 591 165 q 640 352 643 281 q 608 478 638 422 q 527 567 578 534 q 409 600 476 600 q 284 565 340 600 q 196 472 228 531 q 167 342 165 414 q 206 217 171 274 q 298 128 242 161 q 422 95 355 95 m 532 772 q 474 788 506 772 q 409 826 442 805 q 350 862 376 848 q 308 871 323 876 q 284 848 292 865 q 283 805 276 831 l 208 785 q 203 866 193 828 q 242 928 213 905 q 315 952 272 952 q 373 937 342 952 q 437 902 405 922 q 496 867 469 882 q 539 852 523 852 q 562 863 554 852 q 570 890 569 874 q 566 917 571 905 l 642 942 q 646 857 657 896 q 605 795 635 819 q 532 772 575 772 z "},"æ":{"ha":1297,"x_min":51,"x_max":1258,"o":"m 333 -8 q 191 18 255 -8 q 90 98 128 45 q 51 229 53 151 q 85 331 54 292 q 165 388 115 369 q 274 407 215 407 l 561 407 q 548 489 557 451 q 519 556 539 527 q 465 600 499 584 q 375 616 431 616 q 298 608 333 616 q 239 583 264 599 q 199 542 213 567 l 98 601 q 171 678 127 651 q 267 714 215 704 q 375 724 319 724 q 498 703 448 724 q 580 647 547 683 q 631 563 612 610 q 701 647 659 611 q 797 703 744 683 q 908 724 849 724 q 1052 692 986 724 q 1164 605 1117 660 q 1234 475 1211 549 q 1251 315 1258 400 l 685 315 q 724 210 694 256 q 802 136 755 163 q 908 108 849 109 q 1022 141 971 108 q 1103 230 1072 174 l 1222 201 q 1097 50 1181 109 q 908 -8 1013 -8 q 752 33 823 -8 q 636 140 681 74 q 586 62 618 96 q 512 10 555 28 q 415 -8 469 -8 l 333 -8 m 370 71 q 453 85 419 71 q 508 120 487 99 q 540 168 528 142 q 555 216 551 193 q 559 254 559 239 l 559 315 l 328 315 q 212 297 258 315 q 165 218 167 278 q 194 132 167 164 q 267 85 221 99 q 370 71 313 71 m 681 407 l 1133 407 q 1096 514 1128 465 q 1016 591 1065 562 q 908 620 967 620 q 800 592 849 620 q 720 515 751 563 q 681 407 689 467 z "},"b":{"ha":842,"x_min":83,"x_max":801,"o":"m 435 714 q 619 665 536 714 q 751 532 702 615 q 801 348 801 449 q 772 206 801 272 q 693 89 744 140 q 577 10 643 39 q 435 -18 510 -18 q 295 20 354 -18 q 200 119 235 58 l 200 0 l 83 0 l 83 1042 l 200 1042 l 200 577 q 295 676 235 638 q 435 714 354 714 m 433 96 q 558 130 502 96 q 648 221 615 164 q 681 348 681 278 q 647 476 681 419 q 557 567 613 533 q 433 601 501 601 q 315 567 365 601 q 237 475 265 533 q 210 348 210 417 q 237 220 210 278 q 315 130 265 163 q 433 96 366 96 z "},"c":{"ha":708,"x_min":42,"x_max":666,"o":"m 562 183 l 666 127 q 546 22 619 61 q 389 -18 474 -18 q 214 31 293 -18 q 89 164 135 81 q 42 347 42 247 q 69 490 42 424 q 143 607 96 556 q 254 685 191 657 q 389 714 317 714 q 546 674 474 714 q 666 568 619 635 l 562 512 q 483 575 528 553 q 389 597 437 597 q 272 563 324 597 q 189 472 219 528 q 158 347 158 415 q 189 223 158 280 q 273 133 220 167 q 389 99 325 99 q 485 122 440 99 q 562 183 531 146 z "},"ć":{"ha":708,"x_min":42,"x_max":666,"o":"m 562 183 l 666 127 q 546 22 619 61 q 389 -18 474 -18 q 214 31 293 -18 q 89 164 135 81 q 42 347 42 247 q 69 490 42 424 q 143 607 96 556 q 254 685 191 657 q 389 714 317 714 q 546 674 474 714 q 666 568 619 635 l 562 512 q 483 575 528 553 q 389 597 437 597 q 272 563 324 597 q 189 472 219 528 q 158 347 158 415 q 189 223 158 280 q 273 133 220 167 q 389 99 325 99 q 485 122 440 99 q 562 183 531 146 m 338 790 l 393 990 l 510 990 l 395 790 l 338 790 z "},"ç":{"ha":708,"x_min":42,"x_max":666,"o":"m 562 183 l 666 127 q 546 22 619 61 q 389 -18 474 -18 q 214 31 293 -18 q 89 164 135 81 q 42 347 42 247 q 69 490 42 424 q 143 607 96 556 q 254 685 191 657 q 389 714 317 714 q 546 674 474 714 q 666 568 619 635 l 562 512 q 483 575 528 553 q 389 597 437 597 q 272 563 324 597 q 189 472 219 528 q 158 347 158 415 q 189 223 158 280 q 273 133 220 167 q 389 99 325 99 q 485 122 440 99 q 562 183 531 146 m 203 -226 l 203 -135 l 254 -135 q 333 -112 297 -135 q 392 -54 369 -90 q 414 24 414 -17 l 414 76 l 505 76 l 505 26 q 471 -101 505 -44 q 380 -192 438 -158 q 253 -226 322 -226 l 203 -226 z "},"d":{"ha":847,"x_min":42,"x_max":759,"o":"m 642 1042 l 759 1042 l 759 0 l 642 0 l 642 118 q 547 19 607 57 q 407 -18 488 -18 q 265 10 331 -18 q 149 89 199 39 q 70 206 99 140 q 42 347 42 272 q 70 489 42 423 q 149 606 99 556 q 265 685 199 656 q 407 713 331 713 q 547 676 488 713 q 642 577 607 638 l 642 1042 m 408 95 q 527 129 477 95 q 605 220 578 163 q 633 347 633 278 q 605 475 633 418 q 527 566 577 533 q 408 600 476 600 q 284 566 340 600 q 194 475 228 532 q 161 347 161 417 q 195 220 161 277 q 285 129 229 163 q 408 95 342 95 z "},"ð":{"ha":781,"x_min":56,"x_max":753,"o":"m 301 727 l 240 788 l 545 1087 l 604 1026 l 301 727 m 405 -18 q 230 29 309 -18 q 103 156 150 76 q 56 331 56 235 q 83 466 56 403 q 158 578 110 530 q 269 653 206 626 q 405 680 333 680 q 510 656 462 680 q 591 590 559 631 q 547 712 576 652 q 475 822 518 772 q 374 900 432 871 q 244 929 317 929 l 243 1046 q 448 991 355 1046 q 609 841 541 937 q 715 622 678 746 q 753 360 753 498 q 709 164 753 249 q 586 30 665 78 q 405 -18 508 -18 m 405 99 q 523 131 470 99 q 607 215 576 163 q 638 331 638 268 q 606 447 638 394 q 522 532 575 500 q 405 563 469 563 q 287 531 340 563 q 203 447 235 499 q 172 331 172 394 q 203 215 172 268 q 288 130 235 162 q 405 99 340 99 z "},"e":{"ha":777,"x_min":42,"x_max":739,"o":"m 389 -18 q 214 31 293 -18 q 89 164 135 81 q 42 347 42 247 q 69 490 42 424 q 143 607 96 556 q 254 685 191 657 q 389 714 317 714 q 533 682 467 714 q 645 594 599 651 q 716 464 692 538 q 733 305 739 390 l 166 305 q 205 200 174 246 q 283 126 235 153 q 389 99 331 99 q 502 131 451 99 q 584 219 553 163 l 703 192 q 577 41 661 99 q 389 -18 493 -18 m 163 397 l 615 397 q 578 503 610 455 q 497 581 546 551 q 389 610 447 610 q 282 581 331 610 q 202 505 233 553 q 163 397 170 456 z "},"é":{"ha":777,"x_min":42,"x_max":739,"o":"m 389 -18 q 214 31 293 -18 q 89 164 135 81 q 42 347 42 247 q 69 490 42 424 q 143 607 96 556 q 254 685 191 657 q 389 714 317 714 q 533 682 467 714 q 645 594 599 651 q 716 464 692 538 q 733 305 739 390 l 166 305 q 205 200 174 246 q 283 126 235 153 q 389 99 331 99 q 502 131 451 99 q 584 219 553 163 l 703 192 q 577 41 661 99 q 389 -18 493 -18 m 163 397 l 615 397 q 578 503 610 455 q 497 581 546 551 q 389 610 447 610 q 282 581 331 610 q 202 505 233 553 q 163 397 170 456 m 372 790 l 428 990 l 544 990 l 430 790 l 372 790 z "},"ê":{"ha":777,"x_min":42,"x_max":739,"o":"m 389 -18 q 214 31 293 -18 q 89 164 135 81 q 42 347 42 247 q 69 490 42 424 q 143 607 96 556 q 254 685 191 657 q 389 714 317 714 q 533 682 467 714 q 645 594 599 651 q 716 464 692 538 q 733 305 739 390 l 166 305 q 205 200 174 246 q 283 126 235 153 q 389 99 331 99 q 502 131 451 99 q 584 219 553 163 l 703 192 q 577 41 661 99 q 389 -18 493 -18 m 163 397 l 615 397 q 578 503 610 455 q 497 581 546 551 q 389 610 447 610 q 282 581 331 610 q 202 505 233 553 q 163 397 170 456 m 334 972 l 444 972 l 513 810 l 434 810 l 389 918 l 343 810 l 264 810 l 334 972 z "},"ë":{"ha":777,"x_min":42,"x_max":739,"o":"m 389 -18 q 214 31 293 -18 q 89 164 135 81 q 42 347 42 247 q 69 490 42 424 q 143 607 96 556 q 254 685 191 657 q 389 714 317 714 q 533 682 467 714 q 645 594 599 651 q 716 464 692 538 q 733 305 739 390 l 166 305 q 205 200 174 246 q 283 126 235 153 q 389 99 331 99 q 502 131 451 99 q 584 219 553 163 l 703 192 q 577 41 661 99 q 389 -18 493 -18 m 163 397 l 615 397 q 578 503 610 455 q 497 581 546 551 q 389 610 447 610 q 282 581 331 610 q 202 505 233 553 q 163 397 170 456 m 272 787 q 226 805 245 787 q 206 850 206 823 q 226 896 206 877 q 272 915 245 915 q 317 896 299 915 q 336 850 336 877 q 317 805 336 823 q 272 787 299 787 m 506 787 q 459 805 478 787 q 440 850 440 823 q 459 896 440 877 q 506 915 478 915 q 551 896 532 915 q 570 850 570 877 q 551 805 570 823 q 506 787 532 787 z "},"è":{"ha":777,"x_min":42,"x_max":739,"o":"m 389 -18 q 214 31 293 -18 q 89 164 135 81 q 42 347 42 247 q 69 490 42 424 q 143 607 96 556 q 254 685 191 657 q 389 714 317 714 q 533 682 467 714 q 645 594 599 651 q 716 464 692 538 q 733 305 739 390 l 166 305 q 205 200 174 246 q 283 126 235 153 q 389 99 331 99 q 502 131 451 99 q 584 219 553 163 l 703 192 q 577 41 661 99 q 389 -18 493 -18 m 163 397 l 615 397 q 578 503 610 455 q 497 581 546 551 q 389 610 447 610 q 282 581 331 610 q 202 505 233 553 q 163 397 170 456 m 242 990 l 358 990 l 414 790 l 356 790 l 242 990 z "},"f":{"ha":475,"x_min":35,"x_max":458,"o":"m 241 866 l 241 694 l 444 694 l 444 578 l 241 578 l 241 0 l 124 0 l 124 578 l 35 578 l 35 694 l 124 694 l 124 866 q 150 963 124 919 q 220 1032 176 1006 q 317 1058 265 1058 q 393 1043 356 1058 q 458 997 430 1027 l 375 914 q 350 934 365 927 q 317 942 334 942 q 264 919 286 942 q 241 866 241 897 z "},"g":{"ha":826,"x_min":42,"x_max":742,"o":"m 626 694 l 742 694 l 742 -22 q 713 -150 742 -91 q 633 -254 683 -210 q 519 -323 583 -298 q 386 -347 456 -347 q 247 -315 314 -347 q 129 -229 179 -283 q 56 -108 78 -175 l 163 -60 q 211 -146 176 -108 q 291 -207 245 -185 q 386 -230 338 -230 q 475 -214 432 -230 q 552 -170 517 -198 q 606 -104 586 -142 q 626 -22 626 -66 l 626 116 q 532 19 590 56 q 397 -18 474 -18 q 259 10 324 -18 q 146 89 194 39 q 69 206 97 140 q 42 347 42 272 q 69 489 42 423 q 146 606 97 556 q 259 685 194 656 q 397 713 324 713 q 532 676 474 713 q 626 579 590 640 l 626 694 m 398 95 q 515 130 465 95 q 592 222 565 165 q 619 347 619 280 q 591 474 619 417 q 514 566 564 531 q 398 600 465 600 q 278 566 333 600 q 193 475 224 532 q 161 347 161 417 q 193 220 161 277 q 280 129 226 163 q 398 95 333 95 z "},"h":{"ha":765,"x_min":83,"x_max":709,"o":"m 709 369 l 709 0 l 592 0 l 592 366 q 566 484 592 431 q 493 569 539 538 q 393 600 448 600 q 292 569 335 600 q 225 484 249 538 q 201 366 201 431 l 201 0 l 83 0 l 83 1042 l 200 1042 l 200 597 q 285 686 233 658 q 403 713 337 713 q 562 666 494 713 q 669 540 631 619 q 709 369 708 462 z "},"i":{"ha":322,"x_min":78,"x_max":206,"o":"m 83 694 l 200 694 l 200 0 l 83 0 l 83 694 m 142 822 q 97 840 115 822 q 78 885 78 858 q 97 930 78 912 q 142 948 115 948 q 188 930 169 948 q 207 885 207 912 q 188 840 207 858 q 142 822 169 822 z "},"ı":{"ha":322,"x_min":83,"x_max":200,"o":"m 83 694 l 200 694 l 200 0 l 83 0 l 83 694 z "},"í":{"ha":322,"x_min":83,"x_max":298,"o":"m 83 694 l 200 694 l 200 0 l 83 0 l 83 694 m 126 790 l 181 990 l 298 990 l 183 790 l 126 790 z "},"î":{"ha":322,"x_min":17,"x_max":267,"o":"m 83 694 l 200 694 l 200 0 l 83 0 l 83 694 m 88 972 l 197 972 l 267 810 l 188 810 l 142 918 l 97 810 l 17 810 l 88 972 z "},"ï":{"ha":322,"x_min":-40,"x_max":324,"o":"m 83 694 l 200 694 l 200 0 l 83 0 l 83 694 m 26 787 q -21 805 -1 787 q -40 850 -40 823 q -21 896 -40 877 q 26 915 -1 915 q 71 896 52 915 q 90 850 90 877 q 71 805 90 823 q 26 787 52 787 m 259 787 q 213 805 232 787 q 194 850 194 823 q 213 896 194 877 q 259 915 232 915 q 305 896 285 915 q 324 850 324 877 q 305 805 324 823 q 259 787 285 787 z "},"ì":{"ha":322,"x_min":-5,"x_max":200,"o":"m 83 694 l 200 694 l 200 0 l 83 0 l 83 694 m -5 990 l 112 990 l 167 790 l 110 790 l -5 990 z "},"j":{"ha":342,"x_min":-56,"x_max":238,"o":"m -56 -347 q -56 -335 -56 -347 q -56 -306 -56 -324 q -56 -272 -56 -289 q -56 -242 -56 -254 q -56 -231 -56 -231 q 32 -209 -7 -231 q 92 -150 70 -187 q 115 -65 115 -112 l 115 694 l 231 694 l 231 -65 q 194 -207 231 -143 q 91 -309 156 -271 q -56 -347 26 -347 m 173 802 q 128 821 147 802 q 110 866 110 840 q 128 911 110 892 q 173 931 147 931 q 218 911 199 931 q 238 866 238 892 q 218 821 238 840 q 173 802 199 802 z "},"k":{"ha":710,"x_min":95,"x_max":658,"o":"m 658 0 l 524 0 l 339 319 l 211 166 l 211 0 l 95 0 l 95 1042 l 211 1042 l 211 347 l 502 694 l 655 694 l 419 413 l 658 0 z "},"l":{"ha":306,"x_min":95,"x_max":211,"o":"m 95 0 l 95 1042 l 211 1042 l 211 0 l 95 0 z "},"m":{"ha":1192,"x_min":63,"x_max":1129,"o":"m 63 0 l 63 694 l 180 694 l 180 594 q 255 675 215 644 q 356 706 295 706 q 498 667 438 706 q 596 558 558 627 q 695 667 634 628 q 837 706 756 706 q 991 661 925 706 q 1093 541 1056 616 q 1129 376 1129 466 l 1129 0 l 1013 0 l 1013 376 q 991 484 1013 435 q 931 561 970 532 q 837 590 892 590 q 741 561 782 590 q 677 484 700 532 q 654 376 654 435 l 654 0 l 538 0 l 538 376 q 515 484 538 435 q 451 561 492 532 q 356 590 410 590 q 265 559 304 590 q 202 478 225 528 q 180 369 180 428 l 180 0 l 63 0 z "},"n":{"ha":776,"x_min":69,"x_max":707,"o":"m 707 369 l 707 0 l 590 0 l 590 367 q 563 484 590 431 q 490 569 536 538 q 385 601 443 601 q 282 569 327 601 q 212 484 238 538 q 186 367 186 431 l 186 0 l 69 0 l 69 694 l 186 694 l 186 588 q 279 680 224 647 q 402 714 334 714 q 561 667 492 714 q 668 541 629 619 q 707 369 706 463 z "},"ñ":{"ha":776,"x_min":69,"x_max":707,"o":"m 707 369 l 707 0 l 590 0 l 590 367 q 563 484 590 431 q 490 569 536 538 q 385 601 443 601 q 282 569 327 601 q 212 484 238 538 q 186 367 186 431 l 186 0 l 69 0 l 69 694 l 186 694 l 186 588 q 279 680 224 647 q 402 714 334 714 q 561 667 492 714 q 668 541 629 619 q 707 369 706 463 m 496 772 q 438 788 470 772 q 373 826 406 805 q 314 862 340 848 q 272 871 287 876 q 248 848 256 865 q 247 805 240 831 l 172 785 q 167 866 157 828 q 206 928 176 905 q 279 952 235 952 q 337 937 306 952 q 401 902 369 922 q 460 867 433 882 q 503 852 487 852 q 526 863 518 852 q 534 890 533 874 q 530 917 535 905 l 606 942 q 610 857 621 896 q 569 795 599 819 q 496 772 539 772 z "},"o":{"ha":778,"x_min":42,"x_max":736,"o":"m 389 -18 q 214 31 293 -18 q 89 164 135 81 q 42 347 42 247 q 69 490 42 424 q 143 607 96 556 q 254 685 191 657 q 389 714 317 714 q 564 665 485 714 q 689 532 642 615 q 736 347 736 449 q 709 206 736 272 q 634 89 682 140 q 524 10 587 39 q 389 -18 461 -18 m 389 99 q 507 133 454 99 q 589 224 559 167 q 619 347 619 281 q 589 472 619 415 q 506 563 558 529 q 389 597 453 597 q 272 563 324 597 q 189 472 219 528 q 158 347 158 415 q 190 221 158 278 q 274 132 221 165 q 389 99 326 99 z "},"ó":{"ha":778,"x_min":42,"x_max":736,"o":"m 389 -18 q 214 31 293 -18 q 89 164 135 81 q 42 347 42 247 q 69 490 42 424 q 143 607 96 556 q 254 685 191 657 q 389 714 317 714 q 564 665 485 714 q 689 532 642 615 q 736 347 736 449 q 709 206 736 272 q 634 89 682 140 q 524 10 587 39 q 389 -18 461 -18 m 389 99 q 507 133 454 99 q 589 224 559 167 q 619 347 619 281 q 589 472 619 415 q 506 563 558 529 q 389 597 453 597 q 272 563 324 597 q 189 472 219 528 q 158 347 158 415 q 190 221 158 278 q 274 132 221 165 q 389 99 326 99 m 373 790 l 428 990 l 545 990 l 431 790 l 373 790 z "},"ô":{"ha":778,"x_min":42,"x_max":736,"o":"m 389 -18 q 214 31 293 -18 q 89 164 135 81 q 42 347 42 247 q 69 490 42 424 q 143 607 96 556 q 254 685 191 657 q 389 714 317 714 q 564 665 485 714 q 689 532 642 615 q 736 347 736 449 q 709 206 736 272 q 634 89 682 140 q 524 10 587 39 q 389 -18 461 -18 m 389 99 q 507 133 454 99 q 589 224 559 167 q 619 347 619 281 q 589 472 619 415 q 506 563 558 529 q 389 597 453 597 q 272 563 324 597 q 189 472 219 528 q 158 347 158 415 q 190 221 158 278 q 274 132 221 165 q 389 99 326 99 m 335 972 l 444 972 l 514 810 l 435 810 l 390 918 l 344 810 l 265 810 l 335 972 z "},"ö":{"ha":778,"x_min":42,"x_max":736,"o":"m 389 -18 q 214 31 293 -18 q 89 164 135 81 q 42 347 42 247 q 69 490 42 424 q 143 607 96 556 q 254 685 191 657 q 389 714 317 714 q 564 665 485 714 q 689 532 642 615 q 736 347 736 449 q 709 206 736 272 q 634 89 682 140 q 524 10 587 39 q 389 -18 461 -18 m 389 99 q 507 133 454 99 q 589 224 559 167 q 619 347 619 281 q 589 472 619 415 q 506 563 558 529 q 389 597 453 597 q 272 563 324 597 q 189 472 219 528 q 158 347 158 415 q 190 221 158 278 q 274 132 221 165 q 389 99 326 99 m 273 787 q 226 805 246 787 q 207 850 207 823 q 226 896 207 877 q 273 915 246 915 q 318 896 299 915 q 337 850 337 877 q 318 805 337 823 q 273 787 299 787 m 506 787 q 460 805 479 787 q 441 850 441 823 q 460 896 441 877 q 506 915 479 915 q 552 896 533 915 q 571 850 571 877 q 552 805 571 823 q 506 787 533 787 z "},"ò":{"ha":778,"x_min":42,"x_max":736,"o":"m 389 -18 q 214 31 293 -18 q 89 164 135 81 q 42 347 42 247 q 69 490 42 424 q 143 607 96 556 q 254 685 191 657 q 389 714 317 714 q 564 665 485 714 q 689 532 642 615 q 736 347 736 449 q 709 206 736 272 q 634 89 682 140 q 524 10 587 39 q 389 -18 461 -18 m 389 99 q 507 133 454 99 q 589 224 559 167 q 619 347 619 281 q 589 472 619 415 q 506 563 558 529 q 389 597 453 597 q 272 563 324 597 q 189 472 219 528 q 158 347 158 415 q 190 221 158 278 q 274 132 221 165 q 389 99 326 99 m 242 990 l 359 990 l 415 790 l 357 790 l 242 990 z "},"ø":{"ha":778,"x_min":42,"x_max":736,"o":"m 220 -42 l 135 7 l 170 66 q 76 189 111 116 q 42 347 42 263 q 69 490 42 424 q 143 607 96 556 q 254 685 191 657 q 389 714 317 714 q 460 706 426 714 q 525 683 494 698 l 558 739 l 643 690 l 609 631 q 702 507 667 581 q 736 347 736 434 q 709 206 736 272 q 634 89 682 140 q 524 10 587 39 q 389 -18 461 -18 q 318 -10 353 -18 q 252 13 283 -1 l 220 -42 m 228 165 l 472 590 q 357 602 414 613 q 253 556 300 592 q 179 464 207 519 q 151 342 151 408 q 172 242 151 288 q 228 165 192 197 m 306 107 q 423 94 366 84 q 526 141 480 104 q 600 232 572 177 q 627 353 627 287 q 606 453 627 407 q 551 531 585 499 l 306 107 z "},"õ":{"ha":778,"x_min":42,"x_max":736,"o":"m 389 -18 q 214 31 293 -18 q 89 164 135 81 q 42 347 42 247 q 69 490 42 424 q 143 607 96 556 q 254 685 191 657 q 389 714 317 714 q 564 665 485 714 q 689 532 642 615 q 736 347 736 449 q 709 206 736 272 q 634 89 682 140 q 524 10 587 39 q 389 -18 461 -18 m 389 99 q 507 133 454 99 q 589 224 559 167 q 619 347 619 281 q 589 472 619 415 q 506 563 558 529 q 389 597 453 597 q 272 563 324 597 q 189 472 219 528 q 158 347 158 415 q 190 221 158 278 q 274 132 221 165 q 389 99 326 99 m 497 772 q 439 788 471 772 q 374 826 406 805 q 314 862 341 848 q 272 871 288 876 q 248 848 256 865 q 247 805 240 831 l 172 785 q 167 866 158 828 q 207 928 177 905 q 280 952 236 952 q 338 937 306 952 q 402 902 369 922 q 461 867 434 882 q 503 852 488 852 q 526 863 519 852 q 535 890 534 874 q 531 917 535 905 l 606 942 q 611 857 622 896 q 570 795 600 819 q 497 772 540 772 z "},"œ":{"ha":1354,"x_min":42,"x_max":1316,"o":"m 389 -18 q 214 31 293 -18 q 89 164 135 81 q 42 347 42 247 q 69 490 42 424 q 143 607 96 556 q 254 685 191 657 q 389 714 317 714 q 507 691 451 714 q 607 628 563 669 q 678 534 651 588 q 749 628 706 588 q 849 691 793 669 q 967 714 905 714 q 1110 682 1044 714 q 1223 595 1176 651 q 1293 465 1269 539 q 1310 305 1316 390 l 744 305 q 783 200 752 246 q 861 126 813 153 q 967 99 908 99 q 1080 131 1029 99 q 1162 219 1131 163 l 1281 192 q 1155 41 1239 99 q 967 -18 1071 -18 q 849 5 905 -18 q 749 68 793 27 q 678 161 706 108 q 607 68 651 108 q 507 5 563 27 q 389 -18 451 -18 m 389 99 q 507 133 454 99 q 589 224 559 167 q 619 347 619 281 q 589 472 619 415 q 506 563 558 529 q 389 597 453 597 q 272 563 324 597 q 189 472 219 528 q 158 347 158 415 q 190 221 158 278 q 274 132 221 165 q 389 99 326 99 m 740 397 l 1192 397 q 1155 503 1186 455 q 1074 581 1123 552 q 967 610 1025 610 q 859 581 908 610 q 779 505 810 553 q 740 397 747 457 z "},"p":{"ha":856,"x_min":83,"x_max":800,"o":"m 200 -347 l 83 -347 l 83 694 l 200 694 l 200 576 q 294 675 235 637 q 435 713 353 713 q 577 684 510 713 q 693 605 643 656 q 772 489 743 555 q 800 347 800 423 q 772 205 800 272 q 693 88 743 138 q 577 9 643 38 q 435 -19 510 -19 q 294 18 353 -19 q 200 117 235 56 l 200 -347 m 433 599 q 315 565 366 599 q 237 474 265 531 q 210 347 210 417 q 237 220 210 278 q 315 128 265 163 q 433 94 365 94 q 557 128 501 94 q 647 219 613 162 q 681 347 681 276 q 648 474 681 417 q 558 565 615 531 q 433 599 502 599 z "},"þ":{"ha":856,"x_min":83,"x_max":800,"o":"m 83 -347 l 83 972 l 200 972 l 200 576 q 294 675 235 637 q 435 713 353 713 q 577 684 510 713 q 693 605 643 656 q 772 489 743 555 q 800 347 800 423 q 772 205 800 272 q 693 88 743 138 q 577 9 643 38 q 435 -19 510 -19 q 294 18 353 -19 q 200 117 235 56 l 200 -347 l 83 -347 m 433 94 q 557 128 501 94 q 647 219 613 162 q 681 347 681 276 q 648 474 681 417 q 558 565 615 531 q 433 599 502 599 q 315 565 366 599 q 237 474 265 531 q 210 347 210 417 q 237 220 210 278 q 315 128 265 163 q 433 94 365 94 z "},"q":{"ha":856,"x_min":56,"x_max":772,"o":"m 421 -19 q 237 30 320 -19 q 105 163 154 79 q 56 347 56 246 q 84 489 56 423 q 163 605 113 555 q 279 684 213 656 q 421 713 345 713 q 561 675 501 713 q 656 576 620 637 l 656 694 l 772 694 l 772 -347 l 656 -347 l 656 117 q 561 18 620 56 q 421 -19 501 -19 m 422 599 q 297 565 353 599 q 208 474 241 531 q 175 347 175 417 q 209 219 175 276 q 299 128 242 162 q 422 94 355 94 q 541 128 491 94 q 618 220 591 163 q 646 347 646 278 q 618 474 646 417 q 541 565 591 531 q 422 599 490 599 z "},"r":{"ha":520,"x_min":83,"x_max":499,"o":"m 481 579 q 443 594 463 589 q 399 600 423 600 q 297 569 342 600 q 226 484 252 538 q 201 366 201 431 l 201 0 l 83 0 l 83 694 l 200 694 l 200 588 q 293 680 238 646 q 416 713 349 713 q 460 711 439 713 q 499 703 481 709 l 481 579 z "},"s":{"ha":613,"x_min":42,"x_max":571,"o":"m 302 -13 q 193 8 246 -11 q 100 60 140 27 q 42 136 60 93 l 142 179 q 179 135 152 156 q 242 101 206 114 q 313 89 277 89 q 385 101 351 89 q 439 136 418 113 q 460 192 460 159 q 437 246 460 226 q 379 277 414 266 q 308 299 344 289 q 180 343 236 317 q 91 407 124 368 q 59 508 59 447 q 95 619 59 572 q 189 692 131 667 q 314 718 247 718 q 467 682 398 718 q 571 584 537 646 l 477 529 q 441 573 465 554 q 385 603 417 592 q 322 615 354 615 q 246 605 281 617 q 190 569 211 593 q 169 510 169 545 q 191 457 169 475 q 250 428 214 439 q 330 403 287 417 q 448 357 393 383 q 536 291 503 331 q 569 193 570 251 q 531 82 569 129 q 432 9 493 34 q 302 -13 372 -16 z "},"ß":{"ha":756,"x_min":83,"x_max":715,"o":"m 83 0 l 83 651 q 108 776 83 718 q 177 878 133 834 q 279 947 221 922 q 403 972 337 972 q 535 936 476 972 q 630 840 594 901 q 665 704 665 780 q 652 625 665 665 q 616 552 640 585 q 555 500 592 519 q 627 467 597 491 q 677 410 658 443 q 706 340 697 378 q 715 264 715 302 q 678 130 715 190 q 581 35 642 70 q 445 0 519 0 l 394 0 l 374 103 l 435 103 q 523 126 483 103 q 585 187 562 149 q 609 271 609 225 q 585 355 609 317 q 523 415 562 392 q 435 438 483 438 l 374 440 l 374 538 l 392 540 q 470 564 435 542 q 527 622 506 585 q 548 704 548 659 q 527 787 548 750 q 470 847 506 824 q 392 869 435 869 q 295 843 339 869 q 226 774 251 817 q 200 676 200 730 l 200 0 l 83 0 z "},"t":{"ha":484,"x_min":49,"x_max":443,"o":"m 443 578 l 285 578 l 285 0 l 168 0 l 169 578 l 49 578 l 49 694 l 169 694 l 168 913 l 285 913 l 285 694 l 443 694 l 443 578 z "},"u":{"ha":804,"x_min":83,"x_max":721,"o":"m 83 326 l 83 694 l 200 694 l 200 329 q 227 211 200 265 q 301 127 254 158 q 406 95 347 95 q 509 127 464 95 q 579 211 553 158 q 604 329 604 265 l 604 694 l 721 694 l 721 0 l 604 0 l 604 108 q 512 15 567 49 q 389 -19 457 -19 q 230 28 298 -19 q 123 154 161 76 q 83 326 85 233 z "},"ú":{"ha":804,"x_min":83,"x_max":721,"o":"m 83 326 l 83 694 l 200 694 l 200 329 q 227 211 200 265 q 301 127 254 158 q 406 95 347 95 q 509 127 464 95 q 579 211 553 158 q 604 329 604 265 l 604 694 l 721 694 l 721 0 l 604 0 l 604 108 q 512 15 567 49 q 389 -19 457 -19 q 230 28 298 -19 q 123 154 161 76 q 83 326 85 233 m 386 790 l 442 990 l 558 990 l 444 790 l 386 790 z "},"û":{"ha":804,"x_min":83,"x_max":721,"o":"m 83 326 l 83 694 l 200 694 l 200 329 q 227 211 200 265 q 301 127 254 158 q 406 95 347 95 q 509 127 464 95 q 579 211 553 158 q 604 329 604 265 l 604 694 l 721 694 l 721 0 l 604 0 l 604 108 q 512 15 567 49 q 389 -19 457 -19 q 230 28 298 -19 q 123 154 161 76 q 83 326 85 233 m 348 972 l 458 972 l 527 810 l 448 810 l 403 918 l 357 810 l 278 810 l 348 972 z "},"ü":{"ha":804,"x_min":83,"x_max":721,"o":"m 83 326 l 83 694 l 200 694 l 200 329 q 227 211 200 265 q 301 127 254 158 q 406 95 347 95 q 509 127 464 95 q 579 211 553 158 q 604 329 604 265 l 604 694 l 721 694 l 721 0 l 604 0 l 604 108 q 512 15 567 49 q 389 -19 457 -19 q 230 28 298 -19 q 123 154 161 76 q 83 326 85 233 m 286 787 q 240 805 259 787 q 220 850 220 823 q 240 896 220 877 q 286 915 259 915 q 331 896 313 915 q 350 850 350 877 q 331 805 350 823 q 286 787 313 787 m 519 787 q 473 805 492 787 q 454 850 454 823 q 473 896 454 877 q 519 915 492 915 q 565 896 546 915 q 584 850 584 877 q 565 805 584 823 q 519 787 546 787 z "},"ù":{"ha":804,"x_min":83,"x_max":721,"o":"m 83 326 l 83 694 l 200 694 l 200 329 q 227 211 200 265 q 301 127 254 158 q 406 95 347 95 q 509 127 464 95 q 579 211 553 158 q 604 329 604 265 l 604 694 l 721 694 l 721 0 l 604 0 l 604 108 q 512 15 567 49 q 389 -19 457 -19 q 230 28 298 -19 q 123 154 161 76 q 83 326 85 233 m 256 990 l 372 990 l 428 790 l 370 790 l 256 990 z "},"v":{"ha":739,"x_min":42,"x_max":697,"o":"m 444 0 l 295 0 l 42 696 l 166 696 l 369 135 l 573 696 l 697 696 l 444 0 z "},"w":{"ha":1144,"x_min":42,"x_max":1102,"o":"m 392 0 l 274 0 l 42 694 l 156 694 l 335 165 l 512 694 l 632 694 l 810 165 l 987 694 l 1102 694 l 869 0 l 751 0 l 571 535 l 392 0 z "},"ẃ":{"ha":1144,"x_min":42,"x_max":1102,"o":"m 392 0 l 274 0 l 42 694 l 156 694 l 335 165 l 512 694 l 632 694 l 810 165 l 987 694 l 1102 694 l 869 0 l 751 0 l 571 535 l 392 0 m 556 790 l 612 990 l 728 990 l 614 790 l 556 790 z "},"ŵ":{"ha":1144,"x_min":42,"x_max":1102,"o":"m 392 0 l 274 0 l 42 694 l 156 694 l 335 165 l 512 694 l 632 694 l 810 165 l 987 694 l 1102 694 l 869 0 l 751 0 l 571 535 l 392 0 m 517 972 l 627 972 l 697 810 l 617 810 l 572 918 l 526 810 l 447 810 l 517 972 z "},"ẅ":{"ha":1144,"x_min":42,"x_max":1102,"o":"m 392 0 l 274 0 l 42 694 l 156 694 l 335 165 l 512 694 l 632 694 l 810 165 l 987 694 l 1102 694 l 869 0 l 751 0 l 571 535 l 392 0 m 456 787 q 410 805 429 787 q 390 850 390 823 q 410 896 390 877 q 456 915 429 915 q 501 896 483 915 q 520 850 520 877 q 501 805 520 823 q 456 787 483 787 m 690 787 q 643 805 663 787 q 624 850 624 823 q 643 896 624 877 q 690 915 663 915 q 735 896 716 915 q 754 850 754 877 q 735 805 754 823 q 690 787 716 787 z "},"ẁ":{"ha":1144,"x_min":42,"x_max":1102,"o":"m 392 0 l 274 0 l 42 694 l 156 694 l 335 165 l 512 694 l 632 694 l 810 165 l 987 694 l 1102 694 l 869 0 l 751 0 l 571 535 l 392 0 m 425 990 l 542 990 l 597 790 l 540 790 l 425 990 z "},"x":{"ha":763,"x_min":56,"x_max":708,"o":"m 56 0 l 310 349 l 57 696 l 201 696 l 382 449 l 563 696 l 706 696 l 453 349 l 708 0 l 564 0 l 382 250 l 199 0 l 56 0 z "},"y":{"ha":738,"x_min":56,"x_max":683,"o":"m 559 694 l 683 694 l 303 -347 l 179 -347 l 305 0 l 56 694 l 183 694 l 363 160 l 559 694 z "},"ý":{"ha":738,"x_min":56,"x_max":683,"o":"m 559 694 l 683 694 l 303 -347 l 179 -347 l 305 0 l 56 694 l 183 694 l 363 160 l 559 694 m 353 790 l 408 990 l 525 990 l 410 790 l 353 790 z "},"ŷ":{"ha":738,"x_min":56,"x_max":683,"o":"m 559 694 l 683 694 l 303 -347 l 179 -347 l 305 0 l 56 694 l 183 694 l 363 160 l 559 694 m 315 972 l 424 972 l 494 810 l 415 810 l 369 918 l 324 810 l 244 810 l 315 972 z "},"ÿ":{"ha":738,"x_min":56,"x_max":683,"o":"m 559 694 l 683 694 l 303 -347 l 179 -347 l 305 0 l 56 694 l 183 694 l 363 160 l 559 694 m 253 787 q 206 805 226 787 q 187 850 187 823 q 206 896 187 877 q 253 915 226 915 q 298 896 279 915 q 317 850 317 877 q 298 805 317 823 q 253 787 279 787 m 486 787 q 440 805 459 787 q 421 850 421 823 q 440 896 421 877 q 486 915 459 915 q 532 896 513 915 q 551 850 551 877 q 532 805 551 823 q 486 787 513 787 z "},"ỳ":{"ha":738,"x_min":56,"x_max":683,"o":"m 559 694 l 683 694 l 303 -347 l 179 -347 l 305 0 l 56 694 l 183 694 l 363 160 l 559 694 m 222 990 l 339 990 l 394 790 l 337 790 l 222 990 z "},"z":{"ha":744,"x_min":76,"x_max":669,"o":"m 669 578 l 242 117 l 669 117 l 669 0 l 76 0 l 76 117 l 503 578 l 76 578 l 76 694 l 669 694 l 669 578 z "},"ª":{"ha":849,"x_min":49,"x_max":766,"o":"m 649 694 l 766 694 l 766 0 l 649 0 l 644 117 q 555 19 612 57 q 419 -18 497 -18 q 275 11 342 -18 q 157 91 208 40 q 78 208 106 142 q 49 352 49 275 q 77 492 49 426 q 155 608 105 558 q 269 686 204 658 q 409 714 335 714 q 554 675 492 714 q 653 576 616 637 l 649 694 m 422 95 q 541 130 491 95 q 617 223 591 165 q 640 352 643 281 q 608 478 638 422 q 527 567 578 534 q 409 600 476 600 q 284 565 340 600 q 196 472 228 531 q 167 342 165 414 q 206 217 171 274 q 298 128 242 161 q 422 95 355 95 z "},"º":{"ha":778,"x_min":42,"x_max":736,"o":"m 389 -18 q 214 31 293 -18 q 89 164 135 81 q 42 347 42 247 q 69 490 42 424 q 143 607 96 556 q 254 685 191 657 q 389 714 317 714 q 564 665 485 714 q 689 532 642 615 q 736 347 736 449 q 709 206 736 272 q 634 89 682 140 q 524 10 587 39 q 389 -18 461 -18 m 389 99 q 507 133 454 99 q 589 224 559 167 q 619 347 619 281 q 589 472 619 415 q 506 563 558 529 q 389 597 453 597 q 272 563 324 597 q 189 472 219 528 q 158 347 158 415 q 190 221 158 278 q 274 132 221 165 q 389 99 326 99 z "},"μ":{"ha":749,"x_min":56,"x_max":693,"o":"m 56 -300 l 56 694 l 172 694 l 172 329 q 199 211 172 265 q 273 127 226 158 q 378 95 319 95 q 481 127 436 95 q 551 211 526 158 q 576 329 576 265 l 576 694 l 693 694 l 693 0 l 576 0 l 576 108 q 484 15 539 49 q 361 -19 429 -19 q 253 9 302 -19 q 172 80 205 36 l 172 -300 l 56 -300 z "},"₀":{"ha":450,"x_min":50,"x_max":400,"o":"m 225 -22 q 137 9 177 -22 q 74 94 97 40 q 50 214 50 147 q 74 334 50 281 q 137 418 97 387 q 225 450 177 450 q 313 418 274 450 q 376 334 353 387 q 400 214 400 281 q 376 94 400 147 q 313 9 353 40 q 225 -22 274 -22 m 225 58 q 276 83 255 58 q 309 144 297 108 q 320 214 320 180 q 308 288 320 251 q 275 347 297 324 q 225 370 253 370 q 174 346 195 370 q 141 285 152 322 q 130 214 130 249 q 142 141 130 176 q 175 82 153 105 q 225 58 197 58 z "},"₁":{"ha":299,"x_min":67,"x_max":199,"o":"m 119 0 l 119 358 l 67 358 l 78 438 l 199 438 l 199 0 l 119 0 z "},"₂":{"ha":483,"x_min":67,"x_max":383,"o":"m 67 0 l 67 74 q 131 118 94 92 q 204 174 167 144 q 267 236 240 203 q 303 301 294 269 q 281 355 303 334 q 226 375 258 375 q 170 355 193 375 q 147 301 147 334 l 67 301 q 88 380 67 345 q 146 435 110 415 q 226 455 182 455 q 305 435 269 455 q 362 380 341 415 q 383 301 383 345 q 367 241 383 272 q 324 182 350 211 q 268 127 298 153 q 210 80 238 101 l 379 80 l 379 0 l 67 0 z "},"₃":{"ha":390,"x_min":50,"x_max":340,"o":"m 196 -22 q 123 -3 156 -22 q 70 48 90 16 q 50 119 50 79 l 130 119 q 149 75 130 92 q 196 58 168 58 q 241 75 222 58 q 260 119 260 92 q 235 173 260 151 q 164 194 210 194 l 164 255 q 228 274 208 255 q 248 320 248 292 q 231 356 248 342 q 192 370 215 370 q 154 356 170 370 q 138 320 138 342 l 58 320 q 97 413 58 376 q 192 450 137 450 q 288 413 249 450 q 328 320 328 376 q 317 266 328 291 q 289 227 306 242 q 327 180 315 205 q 340 119 340 155 q 320 48 340 79 q 268 -3 301 16 q 196 -22 235 -22 z "},"₄":{"ha":475,"x_min":67,"x_max":375,"o":"m 248 0 l 248 80 l 67 80 l 67 176 l 233 438 l 328 438 l 328 160 l 375 160 l 375 80 l 328 80 l 328 0 l 248 0 m 147 160 l 253 160 l 253 328 l 147 160 z "},"₅":{"ha":476,"x_min":58,"x_max":376,"o":"m 217 -22 q 138 -1 174 -22 q 80 53 101 19 q 58 132 58 88 l 138 132 q 161 79 138 100 q 217 58 185 58 q 273 79 249 58 q 297 132 297 100 q 273 187 297 165 q 217 210 249 210 l 83 197 l 106 433 l 345 433 l 345 360 l 178 360 l 174 287 l 218 290 q 333 244 290 290 q 376 132 376 199 q 355 53 376 88 q 297 -1 333 19 q 217 -22 261 -22 z "},"₆":{"ha":474,"x_min":67,"x_max":390,"o":"m 228 -22 q 113 24 159 -22 q 67 135 67 70 q 72 175 67 156 q 92 223 77 194 q 137 302 108 252 q 213 433 166 351 l 306 433 l 225 292 q 310 272 272 294 q 369 215 347 251 q 390 135 390 178 q 368 53 390 89 q 308 -2 345 18 q 228 -22 272 -22 m 228 58 q 288 82 264 58 q 309 140 312 105 q 283 195 308 175 q 228 216 258 216 q 168 190 191 216 q 147 129 146 163 q 174 77 149 96 q 228 58 198 58 z "},"₇":{"ha":449,"x_min":83,"x_max":399,"o":"m 99 0 l 306 358 l 83 358 l 83 438 l 399 438 l 399 360 l 191 0 l 99 0 z "},"₈":{"ha":425,"x_min":67,"x_max":358,"o":"m 212 -22 q 109 18 151 -22 q 67 118 67 58 q 80 179 67 151 q 116 226 94 207 q 87 268 98 244 q 76 319 76 292 q 116 414 76 376 q 212 451 156 451 q 308 414 268 451 q 349 319 349 376 q 338 268 349 292 q 309 226 327 244 q 345 179 332 207 q 358 118 358 151 q 316 18 358 58 q 212 -22 273 -22 m 212 58 q 259 74 240 58 q 278 118 278 91 q 259 164 278 145 q 212 183 240 183 q 166 164 185 183 q 147 118 147 145 q 166 74 147 91 q 212 58 185 58 m 212 263 q 252 280 235 263 q 268 319 268 297 q 252 357 268 342 q 212 371 235 371 q 173 357 190 371 q 157 319 157 342 q 173 280 157 297 q 212 263 190 263 z "},"₉":{"ha":458,"x_min":48,"x_max":376,"o":"m 133 0 l 215 142 q 140 154 174 138 q 83 201 106 171 q 54 268 60 231 q 62 343 48 306 q 93 403 71 378 q 146 441 115 428 q 213 455 177 455 q 295 433 258 455 q 352 377 331 412 q 374 300 373 342 q 352 218 376 258 l 226 0 l 133 0 m 213 217 q 257 231 238 217 q 287 267 277 244 q 292 315 297 289 q 262 359 286 344 q 213 375 238 375 q 166 362 186 375 q 137 328 147 349 q 132 282 128 307 q 163 233 139 249 q 213 217 188 217 z "},"⁰":{"ha":450,"x_min":50,"x_max":400,"o":"m 225 554 q 137 584 177 554 q 74 667 97 615 q 50 787 50 720 q 74 906 50 853 q 137 989 97 958 q 225 1019 177 1019 q 313 989 274 1019 q 376 906 353 958 q 400 787 400 853 q 376 667 400 720 q 313 584 353 615 q 225 554 274 554 m 225 631 q 276 655 255 631 q 309 716 297 680 q 320 787 320 753 q 308 861 320 825 q 275 920 297 897 q 225 943 253 943 q 174 919 195 943 q 141 859 152 894 q 130 787 130 823 q 142 713 130 749 q 175 654 153 677 q 225 631 197 631 z "},"¹":{"ha":299,"x_min":67,"x_max":199,"o":"m 119 568 l 119 926 l 67 926 l 78 1006 l 199 1006 l 199 568 l 119 568 z "},"²":{"ha":483,"x_min":67,"x_max":383,"o":"m 67 568 l 67 642 q 131 686 94 660 q 204 741 167 712 q 267 803 240 771 q 303 869 294 836 q 281 922 303 901 q 226 943 258 943 q 170 922 193 943 q 147 869 147 901 l 67 869 q 88 947 67 913 q 146 1000 110 981 q 226 1019 182 1019 q 337 977 291 1019 q 383 869 383 934 q 367 809 383 839 q 324 750 350 779 q 268 695 298 721 q 210 648 238 669 l 379 648 l 379 568 l 67 568 z "},"³":{"ha":390,"x_min":50,"x_max":340,"o":"m 196 554 q 93 593 136 554 q 50 692 50 632 l 130 692 q 149 648 130 665 q 196 631 168 631 q 241 648 222 631 q 260 692 260 665 q 235 745 260 724 q 164 767 210 767 l 164 828 q 228 846 208 828 q 248 892 248 865 q 231 928 248 914 q 192 942 215 942 q 154 928 170 942 q 138 892 138 914 l 58 892 q 97 983 58 948 q 192 1019 137 1019 q 288 983 249 1019 q 328 892 328 948 q 317 839 328 864 q 289 799 306 813 q 327 752 315 778 q 340 692 340 727 q 298 593 340 632 q 196 554 255 554 z "},"⁴":{"ha":475,"x_min":67,"x_max":375,"o":"m 248 568 l 248 648 l 67 648 l 67 744 l 233 1006 l 328 1006 l 328 728 l 375 728 l 375 648 l 328 648 l 328 568 l 248 568 m 147 728 l 253 728 l 253 897 l 147 728 z "},"⁵":{"ha":476,"x_min":58,"x_max":376,"o":"m 217 554 q 105 597 151 554 q 58 705 58 639 l 138 705 q 161 652 138 673 q 217 631 185 631 q 273 652 249 631 q 297 705 297 673 q 273 759 297 737 q 217 783 249 781 q 177 782 198 783 q 133 777 156 781 q 85 767 110 774 l 106 1006 l 345 1006 l 345 934 l 178 934 l 174 860 q 320 826 263 868 q 376 705 376 784 q 355 627 376 660 q 297 574 333 593 q 217 554 261 554 z "},"⁶":{"ha":490,"x_min":67,"x_max":390,"o":"m 228 554 q 113 598 159 554 q 67 708 67 642 q 72 747 67 728 q 92 794 77 765 q 136 873 107 824 q 213 1004 165 923 l 306 1004 l 225 865 q 310 844 272 866 q 369 787 347 823 q 390 707 390 751 q 368 626 390 660 q 308 573 345 592 q 228 554 272 554 m 228 631 q 288 654 264 631 q 309 713 312 677 q 283 768 308 747 q 228 789 258 789 q 168 762 191 789 q 147 701 145 735 q 174 649 149 668 q 228 631 198 631 z "},"⁷":{"ha":449,"x_min":83,"x_max":399,"o":"m 101 568 l 306 925 l 83 925 l 83 1006 l 399 1006 l 399 927 l 193 568 l 101 568 z "},"⁸":{"ha":425,"x_min":67,"x_max":358,"o":"m 212 554 q 109 592 151 554 q 67 690 67 630 q 80 751 67 724 q 116 799 94 779 q 87 841 98 817 q 76 891 76 865 q 116 984 76 948 q 212 1020 156 1020 q 308 984 268 1020 q 349 891 349 948 q 338 841 349 865 q 309 799 327 817 q 345 751 332 779 q 358 690 358 724 q 316 592 358 630 q 212 554 273 554 m 212 630 q 259 647 240 630 q 278 690 278 664 q 259 737 278 718 q 212 756 240 756 q 166 737 185 756 q 147 690 147 718 q 166 647 147 664 q 212 630 185 630 m 212 836 q 252 852 235 836 q 268 891 268 869 q 252 929 268 915 q 212 943 235 943 q 173 929 190 943 q 157 891 157 915 q 173 852 157 869 q 212 836 190 836 z "},"⁹":{"ha":458,"x_min":48,"x_max":375,"o":"m 133 568 l 215 710 q 140 722 174 706 q 83 769 106 739 q 54 836 60 799 q 62 910 48 873 q 117 991 74 962 q 213 1019 159 1019 q 287 1002 253 1019 q 341 957 320 985 q 369 894 363 929 q 362 822 375 858 q 358 802 361 812 q 350 782 355 792 l 226 568 l 133 568 m 213 784 q 257 798 238 784 q 287 834 277 812 q 292 883 297 857 q 262 927 286 912 q 213 943 238 943 q 166 930 186 943 q 137 896 147 917 q 132 850 128 874 q 163 800 139 817 q 213 784 188 784 z "},"⁄":{"ha":663,"x_min":0,"x_max":663,"o":"m 0 0 l 561 972 l 663 972 l 102 0 l 0 0 z "},"½":{"ha":1445,"x_min":67,"x_max":1345,"o":"m 119 568 l 119 926 l 67 926 l 78 1006 l 199 1006 l 199 568 l 119 568 m 299 0 l 860 972 l 963 972 l 401 0 l 299 0 m 1029 0 l 1029 74 q 1093 118 1057 92 q 1166 174 1130 144 q 1230 236 1203 203 q 1265 301 1257 269 q 1243 355 1265 334 q 1188 375 1221 375 q 1132 355 1156 375 q 1109 301 1109 334 l 1029 301 q 1051 380 1029 345 q 1108 435 1072 415 q 1188 455 1144 455 q 1268 435 1232 455 q 1325 380 1303 415 q 1346 301 1346 345 q 1329 241 1346 272 q 1286 182 1313 211 q 1230 127 1260 153 q 1172 80 1200 101 l 1342 80 l 1342 0 l 1029 0 z "},"¼":{"ha":1437,"x_min":67,"x_max":1337,"o":"m 119 568 l 119 926 l 67 926 l 78 1006 l 199 1006 l 199 568 l 119 568 m 299 0 l 860 972 l 963 972 l 401 0 l 299 0 m 1210 0 l 1210 80 l 1029 80 l 1029 176 l 1195 438 l 1291 438 l 1291 160 l 1338 160 l 1338 80 l 1291 80 l 1291 0 l 1210 0 m 1110 160 l 1216 160 l 1216 328 l 1110 160 z "},"¾":{"ha":1528,"x_min":50,"x_max":1428,"o":"m 196 554 q 93 593 136 554 q 50 692 50 632 l 130 692 q 149 648 130 665 q 196 631 168 631 q 241 648 222 631 q 260 692 260 665 q 235 745 260 724 q 164 767 210 767 l 164 828 q 228 846 208 828 q 248 892 248 865 q 231 928 248 914 q 192 942 215 942 q 154 928 170 942 q 138 892 138 914 l 58 892 q 97 983 58 948 q 192 1019 137 1019 q 288 983 249 1019 q 328 892 328 948 q 317 839 328 864 q 289 799 306 813 q 327 752 315 778 q 340 692 340 727 q 298 593 340 632 q 196 554 255 554 m 390 0 l 951 972 l 1053 972 l 492 0 l 390 0 m 1301 0 l 1301 80 l 1120 80 l 1120 176 l 1286 438 l 1382 438 l 1382 160 l 1428 160 l 1428 80 l 1382 80 l 1382 0 l 1301 0 m 1201 160 l 1307 160 l 1307 328 l 1201 160 z "},"⅛":{"ha":1388,"x_min":67,"x_max":1321,"o":"m 119 568 l 119 926 l 67 926 l 78 1006 l 199 1006 l 199 568 l 119 568 m 299 0 l 860 972 l 963 972 l 401 0 l 299 0 m 1174 -22 q 1072 18 1114 -22 q 1029 118 1029 58 q 1043 179 1029 151 q 1078 226 1056 207 q 1050 268 1060 244 q 1039 319 1039 292 q 1078 414 1039 376 q 1174 451 1118 451 q 1271 414 1231 451 q 1311 319 1311 376 q 1300 268 1311 292 q 1272 226 1290 244 q 1308 179 1294 207 q 1321 118 1321 151 q 1278 18 1321 58 q 1174 -22 1235 -22 m 1174 58 q 1222 74 1202 58 q 1241 118 1241 91 q 1222 164 1241 145 q 1174 183 1202 183 q 1128 164 1148 183 q 1109 118 1109 145 q 1128 74 1109 91 q 1174 58 1148 58 m 1174 263 q 1214 280 1198 263 q 1231 319 1231 297 q 1214 357 1231 342 q 1174 371 1198 371 q 1136 357 1152 371 q 1119 319 1119 342 q 1136 280 1119 297 q 1174 263 1152 263 z "},"⅜":{"ha":1479,"x_min":50,"x_max":1412,"o":"m 196 554 q 93 593 136 554 q 50 692 50 632 l 130 692 q 149 648 130 665 q 196 631 168 631 q 241 648 222 631 q 260 692 260 665 q 235 745 260 724 q 164 767 210 767 l 164 828 q 228 846 208 828 q 248 892 248 865 q 231 928 248 914 q 192 942 215 942 q 154 928 170 942 q 138 892 138 914 l 58 892 q 97 983 58 948 q 192 1019 137 1019 q 288 983 249 1019 q 328 892 328 948 q 317 839 328 864 q 289 799 306 813 q 327 752 315 778 q 340 692 340 727 q 298 593 340 632 q 196 554 255 554 m 390 0 l 951 972 l 1053 972 l 492 0 l 390 0 m 1265 -22 q 1163 18 1205 -22 q 1120 118 1120 58 q 1134 179 1120 151 q 1169 226 1147 207 q 1141 268 1151 244 q 1130 319 1130 292 q 1169 414 1130 376 q 1265 451 1209 451 q 1362 414 1322 451 q 1402 319 1402 376 q 1391 268 1402 292 q 1363 226 1381 244 q 1399 179 1385 207 q 1412 118 1412 151 q 1369 18 1412 58 q 1265 -22 1326 -22 m 1265 58 q 1313 74 1293 58 q 1332 118 1332 91 q 1313 164 1332 145 q 1265 183 1293 183 q 1219 164 1239 183 q 1200 118 1200 145 q 1219 74 1200 91 q 1265 58 1239 58 m 1265 263 q 1305 280 1289 263 q 1322 319 1322 297 q 1305 357 1322 342 q 1265 371 1289 371 q 1227 357 1243 371 q 1210 319 1210 342 q 1227 280 1210 297 q 1265 263 1243 263 z "},"⅝":{"ha":1565,"x_min":58,"x_max":1498,"o":"m 217 554 q 105 597 151 554 q 58 705 58 639 l 138 705 q 161 652 138 673 q 217 631 185 631 q 273 652 249 631 q 297 705 297 673 q 273 759 297 737 q 217 783 249 781 q 177 782 198 783 q 133 777 156 781 q 85 767 110 774 l 106 1006 l 345 1006 l 345 934 l 178 934 l 174 860 q 320 826 263 868 q 376 705 376 784 q 355 627 376 660 q 297 574 333 593 q 217 554 261 554 m 476 0 l 1038 972 l 1140 972 l 578 0 l 476 0 m 1351 -22 q 1249 18 1291 -22 q 1206 118 1206 58 q 1220 179 1206 151 q 1256 226 1233 207 q 1227 268 1238 244 q 1216 319 1216 292 q 1256 414 1216 376 q 1351 451 1295 451 q 1448 414 1408 451 q 1488 319 1488 376 q 1477 268 1488 292 q 1449 226 1467 244 q 1485 179 1472 207 q 1498 118 1498 151 q 1455 18 1498 58 q 1351 -22 1413 -22 m 1351 58 q 1399 74 1379 58 q 1418 118 1418 91 q 1399 164 1418 145 q 1351 183 1379 183 q 1306 164 1325 183 q 1286 118 1286 145 q 1306 74 1286 91 q 1351 58 1325 58 m 1351 263 q 1391 280 1375 263 q 1408 319 1408 297 q 1391 357 1408 342 q 1351 371 1375 371 q 1313 357 1329 371 q 1297 319 1297 342 q 1313 280 1297 297 q 1351 263 1329 263 z "},"⅞":{"ha":1537,"x_min":83,"x_max":1470,"o":"m 101 568 l 306 925 l 83 925 l 83 1006 l 399 1006 l 399 927 l 193 568 l 101 568 m 449 0 l 1010 972 l 1112 972 l 551 0 l 449 0 m 1324 -22 q 1221 18 1263 -22 q 1178 118 1178 58 q 1192 179 1178 151 q 1228 226 1206 207 q 1199 268 1210 244 q 1188 319 1188 292 q 1228 414 1188 376 q 1324 451 1267 451 q 1420 414 1380 451 q 1460 319 1460 376 q 1450 268 1460 292 q 1421 226 1439 244 q 1457 179 1444 207 q 1470 118 1470 151 q 1427 18 1470 58 q 1324 -22 1385 -22 m 1324 58 q 1371 74 1351 58 q 1390 118 1390 91 q 1371 164 1390 145 q 1324 183 1351 183 q 1278 164 1297 183 q 1258 118 1258 145 q 1278 74 1258 91 q 1324 58 1297 58 m 1324 263 q 1364 280 1347 263 q 1380 319 1380 297 q 1364 357 1380 342 q 1324 371 1347 371 q 1285 357 1301 371 q 1269 319 1269 342 q 1285 280 1269 297 q 1324 263 1301 263 z "},".":{"ha":267,"x_min":56,"x_max":183,"o":"m 119 -18 q 74 1 92 -18 q 56 47 56 19 q 74 91 56 72 q 119 110 92 110 q 165 91 146 110 q 183 47 183 72 q 165 1 183 19 q 119 -18 146 -18 z "},",":{"ha":299,"x_min":56,"x_max":215,"o":"m 56 -78 l 99 157 l 215 157 l 133 -78 l 56 -78 z "},":":{"ha":267,"x_min":56,"x_max":183,"o":"m 119 567 q 74 585 92 567 q 56 631 56 604 q 74 676 56 657 q 119 694 92 694 q 165 676 146 694 q 183 631 183 657 q 165 585 183 604 q 119 567 146 567 m 119 -18 q 74 1 92 -18 q 56 47 56 19 q 74 91 56 72 q 119 110 92 110 q 165 91 146 110 q 183 47 183 72 q 165 1 183 19 q 119 -18 146 -18 z "},";":{"ha":303,"x_min":56,"x_max":220,"o":"m 56 -78 l 99 157 l 215 157 l 133 -78 l 56 -78 m 156 567 q 110 585 129 567 q 92 630 92 603 q 110 676 92 657 q 156 694 129 694 q 201 676 182 694 q 220 630 220 657 q 201 585 220 603 q 156 567 182 567 z "},"…":{"ha":756,"x_min":56,"x_max":673,"o":"m 119 -18 q 74 1 92 -18 q 56 47 56 19 q 74 91 56 72 q 119 110 92 110 q 165 91 146 110 q 183 47 183 72 q 165 1 183 19 q 119 -18 146 -18 m 363 -18 q 318 1 337 -18 q 300 47 300 19 q 318 91 300 72 q 363 110 337 110 q 409 91 390 110 q 428 47 428 72 q 409 1 428 19 q 363 -18 390 -18 m 608 -18 q 563 1 581 -18 q 544 47 544 19 q 563 91 544 72 q 608 110 581 110 q 653 91 635 110 q 672 47 672 72 q 653 1 672 19 q 608 -18 635 -18 z "},"!":{"ha":266,"x_min":56,"x_max":183,"o":"m 69 292 l 69 972 l 170 972 l 170 292 l 69 292 m 120 -18 q 74 1 93 -18 q 56 47 56 19 q 74 91 56 73 q 120 110 93 110 q 164 91 146 110 q 183 47 183 73 q 164 1 183 19 q 120 -18 146 -18 z "},"¡":{"ha":251,"x_min":56,"x_max":183,"o":"m 119 713 q 164 694 146 713 q 183 648 183 676 q 164 603 183 622 q 119 585 146 585 q 74 603 92 585 q 56 648 56 622 q 74 694 56 676 q 119 713 92 713 m 169 403 l 169 -278 l 68 -278 l 68 403 l 169 403 z "},"?":{"ha":716,"x_min":56,"x_max":633,"o":"m 295 324 q 331 456 295 396 q 430 550 367 515 q 493 612 470 571 q 516 703 516 653 q 493 790 516 751 q 430 851 469 828 q 344 874 391 874 q 257 851 297 874 q 195 790 218 828 q 172 703 172 751 l 56 703 q 94 848 56 783 q 199 952 133 913 q 344 991 265 991 q 489 952 424 991 q 594 848 555 913 q 633 703 633 783 q 593 553 633 622 q 485 447 553 484 q 431 396 451 428 q 412 324 412 364 l 295 324 m 353 -18 q 308 1 326 -18 q 289 47 289 20 q 308 91 289 73 q 353 110 326 110 q 399 91 380 110 q 417 47 417 73 q 399 1 417 20 q 353 -18 380 -18 z "},"¿":{"ha":701,"x_min":56,"x_max":633,"o":"m 344 -297 q 199 -258 265 -297 q 95 -153 134 -219 q 56 -8 56 -87 q 95 142 56 73 q 203 248 135 212 q 257 299 238 266 q 276 371 276 331 l 393 371 q 357 240 393 301 q 258 145 322 180 q 195 82 218 124 q 172 -8 172 41 q 195 -94 172 -56 q 258 -157 219 -133 q 344 -180 297 -180 q 431 -157 392 -180 q 493 -94 470 -133 q 517 -8 517 -56 l 633 -8 q 594 -153 633 -87 q 490 -258 556 -219 q 344 -297 424 -297 m 335 585 q 290 603 308 585 q 272 648 272 622 q 290 694 272 676 q 335 713 308 713 q 380 694 362 713 q 399 648 399 676 q 380 603 399 622 q 335 585 362 585 z "},"·":{"ha":239,"x_min":56,"x_max":183,"o":"m 119 353 q 74 372 92 353 q 56 417 56 390 q 74 462 56 443 q 119 481 92 481 q 165 462 146 481 q 183 417 183 443 q 165 372 183 390 q 119 353 146 353 z "},"•":{"ha":282,"x_min":56,"x_max":226,"o":"m 140 331 q 80 356 105 331 q 56 417 56 381 q 80 477 56 453 q 140 502 105 502 q 201 477 176 502 q 226 417 226 453 q 201 356 226 381 q 140 331 176 331 z "},"*":{"ha":493,"x_min":35,"x_max":438,"o":"m 153 589 l 85 640 l 167 752 l 35 794 l 60 876 l 193 833 l 193 972 l 279 972 l 279 833 l 411 876 l 438 794 l 305 752 l 387 640 l 317 589 l 236 702 l 153 589 z "},"#":{"ha":1061,"x_min":56,"x_max":1006,"o":"m 975 635 l 842 635 l 761 338 l 896 338 l 865 225 l 732 225 l 671 0 l 554 0 l 615 225 l 306 225 l 246 0 l 129 0 l 190 225 l 56 225 l 86 338 l 219 338 l 300 635 l 165 635 l 196 748 l 330 748 l 390 972 l 506 972 l 447 748 l 756 748 l 815 972 l 931 972 l 872 748 l 1006 748 l 975 635 m 644 338 l 725 635 l 417 635 l 336 338 l 644 338 z "},"/":{"ha":509,"x_min":56,"x_max":453,"o":"m 453 972 l 172 -78 l 56 -78 l 337 972 l 453 972 z "},"\\":{"ha":509,"x_min":56,"x_max":453,"o":"m 337 -78 l 56 972 l 172 972 l 453 -78 l 337 -78 z "},"(":{"ha":468,"x_min":83,"x_max":399,"o":"m 282 -78 q 167 72 211 -10 q 103 250 124 155 q 83 447 83 344 q 92 563 83 501 q 117 686 100 624 q 157 803 133 747 q 213 902 181 858 q 282 972 244 947 l 399 972 q 335 898 365 942 q 282 800 306 853 q 240 686 258 746 q 211 566 222 626 q 200 447 201 505 q 228 242 202 338 q 298 65 254 145 q 399 -78 342 -16 l 282 -78 z "},")":{"ha":468,"x_min":69,"x_max":385,"o":"m 69 -78 q 169 65 126 -16 q 240 242 213 145 q 268 447 266 338 q 257 566 267 505 q 228 686 247 626 q 186 800 210 746 q 133 898 162 853 q 69 972 103 942 l 186 972 q 255 902 224 947 q 310 803 286 858 q 351 686 335 747 q 376 563 368 624 q 385 447 385 501 q 365 250 385 344 q 301 72 344 155 q 186 -78 257 -10 l 69 -78 z "},"{":{"ha":561,"x_min":83,"x_max":492,"o":"m 434 -78 q 311 -45 367 -78 q 224 43 256 -12 q 191 165 191 98 l 191 335 q 174 369 190 356 q 136 391 157 381 q 99 413 115 400 q 83 447 83 425 q 99 482 83 469 q 136 504 115 494 q 174 525 157 513 q 191 558 190 538 l 191 729 q 224 851 191 796 q 311 939 256 906 q 434 972 367 972 l 492 972 l 492 856 l 434 856 q 371 839 399 856 q 325 793 342 822 q 308 729 308 764 l 308 554 q 295 512 306 528 q 267 482 285 496 q 228 447 250 467 q 268 410 251 424 q 295 381 285 396 q 308 339 306 366 l 308 165 q 325 101 308 130 q 370 55 342 72 q 434 38 399 38 l 492 38 l 492 -78 l 434 -78 z "},"}":{"ha":561,"x_min":69,"x_max":478,"o":"m 69 -78 l 69 38 l 127 38 q 191 55 162 38 q 236 101 219 72 q 253 165 253 130 l 253 339 q 265 381 255 366 q 293 410 276 396 q 333 447 310 424 q 294 482 312 467 q 266 512 276 496 q 253 554 255 528 l 253 729 q 236 793 253 764 q 191 839 219 822 q 127 856 162 856 l 69 856 l 69 972 l 127 972 q 250 939 194 972 q 338 851 305 906 q 370 729 370 796 l 370 558 q 388 525 372 538 q 425 504 403 513 q 462 482 446 494 q 478 447 478 469 q 462 413 478 425 q 425 391 446 400 q 388 369 403 381 q 370 335 372 356 l 370 165 q 338 43 370 98 q 250 -45 305 -12 q 127 -78 194 -78 l 69 -78 z "},"[":{"ha":393,"x_min":83,"x_max":324,"o":"m 324 39 l 324 -78 l 83 -78 l 83 972 l 324 972 l 324 856 l 200 856 l 200 39 l 324 39 z "},"]":{"ha":394,"x_min":69,"x_max":310,"o":"m 69 -78 l 69 39 l 194 39 l 194 856 l 69 856 l 69 972 l 310 972 l 310 -78 l 69 -78 z "},"-":{"ha":611,"x_min":83,"x_max":528,"o":"m 83 475 l 528 475 l 528 358 l 83 358 l 83 475 z "},"­":{"ha":626,"x_min":99,"x_max":543,"o":"m 99 475 l 543 475 l 543 358 l 99 358 l 99 475 z "},"–":{"ha":861,"x_min":83,"x_max":778,"o":"m 83 475 l 778 475 l 778 358 l 83 358 l 83 475 z "},"—":{"ha":1417,"x_min":83,"x_max":1333,"o":"m 83 475 l 1333 475 l 1333 358 l 83 358 l 83 475 z "},"_":{"ha":861,"x_min":83,"x_max":778,"o":"m 83 39 l 778 39 l 778 -78 l 83 -78 l 83 39 z "},"‚":{"ha":256,"x_min":40,"x_max":200,"o":"m 40 -78 l 83 157 l 200 157 l 118 -78 l 40 -78 z "},"„":{"ha":463,"x_min":40,"x_max":408,"o":"m 40 -78 l 83 157 l 200 157 l 118 -78 l 40 -78 m 248 -78 l 291 157 l 408 157 l 326 -78 l 248 -78 z "},"“":{"ha":479,"x_min":83,"x_max":451,"o":"m 83 610 l 165 972 l 243 972 l 200 610 l 83 610 m 292 613 l 374 975 l 451 975 l 408 613 l 292 613 z "},"”":{"ha":479,"x_min":28,"x_max":396,"o":"m 28 610 l 71 972 l 188 972 l 106 610 l 28 610 m 236 610 l 279 972 l 396 972 l 314 610 l 236 610 z "},"ʻ":{"ha":229,"x_min":42,"x_max":201,"o":"m 42 610 l 124 972 l 201 972 l 158 610 l 42 610 z "},"’":{"ha":229,"x_min":28,"x_max":188,"o":"m 28 610 l 71 972 l 188 972 l 106 610 l 28 610 z "},"«":{"ha":738,"x_min":83,"x_max":668,"o":"m 292 181 l 83 417 l 292 652 l 416 652 l 208 417 l 416 181 l 292 181 m 544 181 l 335 417 l 544 652 l 668 652 l 460 417 l 668 181 l 544 181 z "},"»":{"ha":751,"x_min":69,"x_max":654,"o":"m 322 181 l 529 417 l 322 652 l 446 652 l 654 417 l 446 181 l 322 181 m 69 181 l 277 417 l 69 652 l 194 652 l 402 417 l 194 181 l 69 181 z "},"‹":{"ha":485,"x_min":83,"x_max":416,"o":"m 292 181 l 83 417 l 292 652 l 416 652 l 208 417 l 416 181 l 292 181 z "},"›":{"ha":485,"x_min":69,"x_max":402,"o":"m 69 181 l 277 417 l 69 652 l 194 652 l 402 417 l 194 181 l 69 181 z "},"‵":{"ha":326,"x_min":83,"x_max":243,"o":"m 165 610 l 83 972 l 200 972 l 243 610 l 165 610 z "},"\"":{"ha":374,"x_min":49,"x_max":324,"o":"m 49 610 l 49 972 l 135 972 l 135 610 l 49 610 m 239 610 l 239 972 l 324 972 l 324 610 l 239 610 z "},"'":{"ha":184,"x_min":49,"x_max":135,"o":"m 49 610 l 49 972 l 135 972 l 135 610 l 49 610 z "}," ":{"ha":694,"x_min":0,"x_max":0,"o":""}," ":{"ha":333,"x_min":0,"x_max":0,"o":""}," ":{"ha":333,"x_min":0,"x_max":0,"o":""}," ":{"ha":278,"x_min":0,"x_max":0,"o":""},"​":{"ha":0,"x_min":0,"x_max":0,"o":""},"\r":{"ha":833,"x_min":0,"x_max":0,"o":""},"\u0000":{"ha":833,"x_min":0,"x_max":0,"o":""},"¢":{"ha":758,"x_min":56,"x_max":703,"o":"m 360 0 l 360 142 q 205 201 274 153 q 96 324 136 249 q 56 488 56 399 q 96 651 56 576 q 205 773 136 725 q 360 832 274 822 l 360 972 l 446 972 l 446 832 q 594 779 527 824 q 703 668 662 735 l 602 610 q 517 690 570 660 q 404 719 463 719 q 288 688 341 719 q 204 604 235 657 q 172 488 172 551 q 204 369 172 422 q 289 285 236 317 q 404 254 342 254 q 517 284 463 254 q 602 364 570 314 l 703 306 q 594 195 662 239 q 446 142 527 151 l 446 0 l 360 0 z "},"¤":{"ha":691,"x_min":56,"x_max":635,"o":"m 116 196 l 56 256 l 142 344 q 102 436 113 386 q 103 535 92 485 q 144 627 113 585 l 56 717 l 116 776 l 205 688 q 296 728 246 718 q 396 729 346 738 q 488 690 447 719 l 576 776 l 635 717 l 549 629 q 591 537 581 588 q 591 435 601 486 q 550 342 581 385 l 635 256 l 576 196 l 490 281 q 396 240 447 251 q 296 240 346 230 q 203 283 246 251 l 116 196 m 347 320 q 429 343 392 321 q 489 402 466 365 q 511 485 511 440 q 489 568 511 532 q 429 627 467 605 q 347 649 392 649 q 263 626 300 649 q 205 567 226 604 q 183 485 183 529 q 205 401 183 439 q 265 342 228 364 q 347 320 303 320 z "},"$":{"ha":825,"x_min":56,"x_max":769,"o":"m 412 870 q 297 850 350 871 q 210 792 243 829 q 176 707 176 756 q 207 618 176 649 q 292 572 238 587 q 412 544 345 556 q 587 494 506 528 q 716 403 667 460 q 765 263 765 346 q 723 125 765 185 q 610 29 681 65 q 456 -15 540 -8 l 456 -156 l 370 -156 l 370 -15 q 235 16 299 -10 q 124 85 171 42 q 56 186 76 128 l 165 227 q 216 159 178 188 q 306 115 254 131 q 412 99 357 99 q 528 119 474 99 q 615 176 582 140 q 649 263 649 213 q 614 345 649 313 q 525 397 579 378 q 412 426 471 416 q 232 474 311 443 q 106 560 152 505 q 60 707 60 616 q 102 845 60 785 q 215 941 144 905 q 370 985 285 977 l 370 1128 l 456 1128 l 456 985 q 588 953 524 978 q 699 885 651 928 q 769 782 747 842 l 659 742 q 607 810 645 781 q 518 855 569 839 q 412 870 467 870 z "},"€":{"ha":802,"x_min":56,"x_max":747,"o":"m 747 -10 q 565 -8 652 -27 q 403 61 477 12 q 278 185 330 111 q 201 351 226 259 l 56 351 l 56 437 l 186 437 l 186 535 l 56 535 l 56 620 l 201 620 q 279 788 226 713 q 406 912 332 863 q 566 981 479 961 q 747 983 653 1000 l 747 864 q 610 869 675 880 q 489 824 544 858 q 391 738 433 790 q 327 620 349 685 l 546 620 l 546 535 l 304 535 l 304 437 l 546 437 l 546 351 l 328 351 q 393 232 351 284 q 491 147 435 180 q 612 103 547 114 q 747 110 677 93 l 747 -10 z "},"£":{"ha":813,"x_min":56,"x_max":757,"o":"m 72 0 l 72 117 q 149 127 111 117 q 216 156 186 138 q 259 202 245 175 q 266 262 274 229 q 244 331 261 301 q 203 385 227 360 q 154 434 179 410 q 106 487 128 459 q 69 553 83 515 q 56 640 56 590 q 83 776 56 713 q 159 887 110 839 q 270 963 207 935 q 406 990 333 990 q 542 963 478 990 q 654 888 606 935 q 730 776 703 840 q 757 640 757 713 l 640 640 q 609 758 640 705 q 524 842 577 810 q 406 874 470 874 q 289 842 342 874 q 204 758 235 810 q 172 640 172 705 q 188 551 172 588 q 227 489 203 515 q 280 439 252 463 q 331 389 307 416 q 371 325 356 362 q 387 232 387 288 q 376 183 387 206 q 348 143 365 160 q 315 117 332 126 l 749 117 l 749 0 l 72 0 m 72 311 l 72 397 l 597 397 l 597 311 l 72 311 z "},"¥":{"ha":874,"x_min":49,"x_max":824,"o":"m 378 0 l 378 126 l 184 126 l 184 210 l 378 210 l 378 310 l 184 310 l 184 395 l 378 395 l 378 440 l 49 972 l 187 972 l 437 567 l 687 972 l 824 972 l 495 440 l 495 395 l 690 395 l 690 310 l 495 310 l 495 210 l 690 210 l 690 126 l 495 126 l 495 0 l 378 0 z "},"+":{"ha":806,"x_min":56,"x_max":750,"o":"m 344 69 l 344 358 l 56 358 l 56 475 l 344 475 l 344 764 l 461 764 l 461 475 l 750 475 l 750 358 l 461 358 l 461 69 l 344 69 z "},"−":{"ha":806,"x_min":56,"x_max":750,"o":"m 56 358 l 56 475 l 750 475 l 750 358 l 56 358 z "},"×":{"ha":685,"x_min":56,"x_max":629,"o":"m 138 130 l 56 213 l 259 417 l 56 621 l 138 703 l 342 499 l 546 703 l 629 621 l 424 417 l 629 213 l 546 130 l 342 334 l 138 130 z "},"÷":{"ha":806,"x_min":56,"x_max":750,"o":"m 56 358 l 56 475 l 750 475 l 750 358 l 56 358 m 403 746 q 457 722 434 746 q 479 667 479 698 q 457 613 479 636 q 403 590 434 590 q 348 613 369 590 q 326 667 326 636 q 348 722 326 698 q 403 746 369 746 m 403 243 q 458 219 434 243 q 481 165 481 195 q 458 110 481 133 q 403 88 434 88 q 348 110 369 88 q 326 165 326 133 q 348 219 326 195 q 403 243 369 243 z "},"=":{"ha":806,"x_min":56,"x_max":750,"o":"m 56 216 l 56 332 l 750 332 l 750 216 l 56 216 m 56 501 l 56 617 l 750 617 l 750 501 l 56 501 z "},"≠":{"ha":806,"x_min":56,"x_max":750,"o":"m 581 821 l 522 617 l 750 617 l 750 501 l 488 501 l 438 332 l 750 332 l 750 216 l 404 216 l 344 13 l 223 13 l 283 216 l 56 216 l 56 332 l 317 332 l 366 501 l 56 501 l 56 617 l 401 617 l 460 821 l 581 821 z "},">":{"ha":806,"x_min":56,"x_max":750,"o":"m 56 126 l 56 247 l 663 417 l 56 585 l 56 707 l 750 513 l 750 319 l 56 126 z "},"<":{"ha":806,"x_min":56,"x_max":750,"o":"m 750 122 l 56 319 l 56 513 l 750 711 l 750 589 l 143 417 l 750 243 l 750 122 z "},"≥":{"ha":806,"x_min":56,"x_max":750,"o":"m 56 243 l 56 365 l 663 533 l 56 702 l 56 824 l 750 629 l 750 436 l 56 243 m 56 0 l 56 117 l 750 117 l 750 0 l 56 0 z "},"≤":{"ha":806,"x_min":56,"x_max":750,"o":"m 750 235 l 56 433 l 56 625 l 750 824 l 750 702 l 143 530 l 750 357 l 750 235 m 56 0 l 56 117 l 750 117 l 750 0 l 56 0 z "},"±":{"ha":806,"x_min":56,"x_max":750,"o":"m 344 240 l 344 528 l 56 528 l 56 645 l 344 645 l 344 934 l 461 934 l 461 645 l 750 645 l 750 528 l 461 528 l 461 240 l 344 240 m 56 0 l 56 117 l 750 117 l 750 0 l 56 0 z "},"≈":{"ha":865,"x_min":20,"x_max":790,"o":"m 607 493 q 511 515 563 493 q 407 565 460 537 q 308 615 355 594 q 226 637 261 637 q 178 622 198 638 q 149 581 158 606 q 146 528 140 556 l 32 526 q 43 633 20 582 q 111 716 65 683 q 217 749 157 749 q 307 726 260 749 q 403 675 355 704 q 498 624 452 646 q 581 602 543 602 q 630 617 610 602 q 660 657 651 632 q 663 710 669 682 l 777 714 q 770 606 790 656 q 708 524 751 556 q 607 493 665 493 m 607 113 q 511 134 563 113 q 407 185 460 156 q 308 235 355 213 q 226 256 261 256 q 178 241 198 257 q 149 201 158 226 q 146 148 140 176 l 32 145 q 43 252 20 201 q 111 335 65 303 q 217 368 157 368 q 307 346 260 368 q 403 294 355 324 q 498 243 452 265 q 581 222 543 222 q 630 236 610 222 q 660 276 651 251 q 663 329 669 301 l 777 333 q 770 225 790 276 q 708 144 751 175 q 607 113 665 113 z "},"~":{"ha":865,"x_min":48,"x_max":817,"o":"m 635 289 q 539 311 591 289 q 435 361 488 333 q 336 411 383 390 q 254 433 289 433 q 206 418 226 433 q 177 377 185 402 q 174 324 168 352 l 60 322 q 70 428 48 378 q 139 512 93 479 q 244 544 185 544 q 335 522 288 544 q 431 471 383 500 q 525 420 480 442 q 608 398 571 398 q 658 413 638 398 q 688 453 678 428 q 690 506 697 478 l 805 510 q 798 402 817 452 q 736 320 778 351 q 635 289 693 289 z "},"¬":{"ha":685,"x_min":56,"x_max":629,"o":"m 513 214 l 513 503 l 56 503 l 56 619 l 629 619 l 629 214 l 513 214 z "},"^":{"ha":578,"x_min":56,"x_max":522,"o":"m 56 694 l 219 1146 l 358 1146 l 522 694 l 398 694 l 289 995 l 179 694 l 56 694 z "},"∅":{"ha":806,"x_min":56,"x_max":750,"o":"m 234 -42 l 149 7 l 184 66 q 90 189 125 116 q 56 347 56 263 q 83 490 56 424 q 157 607 110 556 q 268 685 205 657 q 403 714 331 714 q 474 706 440 714 q 539 683 508 698 l 572 739 l 657 690 l 623 631 q 716 507 681 581 q 750 347 750 434 q 723 206 750 272 q 648 89 696 140 q 538 10 601 39 q 403 -18 475 -18 q 332 -10 367 -18 q 266 13 297 -1 l 234 -42 m 242 165 l 485 590 q 371 602 428 613 q 267 556 314 592 q 193 464 221 519 q 165 342 165 408 q 185 242 165 288 q 242 165 206 197 m 320 107 q 437 94 380 84 q 540 141 494 104 q 614 232 586 177 q 641 353 641 287 q 620 453 641 407 q 565 531 599 499 l 320 107 z "},"∞":{"ha":1031,"x_min":56,"x_max":976,"o":"m 278 201 q 160 241 210 208 q 83 324 110 274 q 56 433 56 374 q 84 548 56 497 q 163 631 113 599 q 278 665 213 663 q 368 650 329 665 q 441 602 406 634 q 516 522 476 571 q 590 602 555 570 q 662 649 625 633 q 744 665 699 665 q 870 631 818 663 q 949 547 922 599 q 976 433 976 496 q 948 319 976 371 q 870 236 919 267 q 755 201 820 205 q 666 216 704 201 q 593 262 628 231 q 516 343 558 293 q 440 262 475 294 q 367 215 405 230 q 278 201 328 199 m 278 309 q 342 324 315 309 q 393 367 369 339 q 449 433 418 394 q 392 502 417 474 q 340 544 367 530 q 278 557 314 558 q 194 516 226 553 q 163 433 163 480 q 196 348 163 382 q 278 309 230 313 m 754 309 q 838 350 806 314 q 869 433 869 385 q 837 518 869 483 q 749 558 805 553 q 690 543 716 558 q 640 501 665 528 q 583 433 615 473 q 631 376 610 400 q 670 338 652 353 q 709 316 689 323 q 754 309 729 309 z "},"∫":{"ha":647,"x_min":53,"x_max":594,"o":"m 202 -18 q 125 3 159 -17 q 72 59 90 24 q 56 140 53 95 l 136 133 q 145 97 137 112 q 176 78 154 81 q 213 90 197 78 q 231 124 228 103 l 300 874 q 328 935 306 908 q 382 977 350 962 q 449 990 415 992 q 524 967 490 989 q 576 909 558 944 q 590 832 594 873 l 516 839 q 499 880 515 867 q 463 892 484 894 q 430 879 443 893 q 414 846 416 865 l 345 99 q 294 10 334 38 q 202 -18 255 -17 z "},"∏":{"ha":889,"x_min":56,"x_max":833,"o":"m 56 972 l 833 972 l 833 856 l 56 856 l 56 972 m 178 894 l 294 894 l 294 0 l 178 0 l 178 894 m 594 894 l 711 894 l 711 0 l 594 0 l 594 894 z "},"∑":{"ha":657,"x_min":56,"x_max":615,"o":"m 56 0 l 56 117 l 244 485 l 56 853 l 56 969 l 615 969 l 615 853 l 187 853 l 375 485 l 187 117 l 615 117 l 615 0 l 56 0 z "},"√":{"ha":904,"x_min":56,"x_max":849,"o":"m 610 972 l 849 972 l 849 856 l 691 856 l 378 0 l 235 0 l 56 492 l 180 492 l 307 144 l 610 972 z "},"∂":{"ha":809,"x_min":56,"x_max":753,"o":"m 405 -18 q 230 29 309 -18 q 103 156 150 76 q 56 331 56 235 q 83 466 56 403 q 158 578 110 530 q 269 653 206 626 q 405 680 333 680 q 510 656 462 680 q 591 590 559 631 q 547 712 576 652 q 475 822 518 772 q 374 900 432 871 q 244 929 317 929 l 243 1046 q 448 991 355 1046 q 609 841 541 937 q 715 622 678 746 q 753 360 753 498 q 709 164 753 249 q 586 30 665 78 q 405 -18 508 -18 m 405 99 q 523 131 470 99 q 607 215 576 163 q 638 331 638 268 q 606 447 638 394 q 522 532 575 500 q 405 563 469 563 q 287 531 340 563 q 203 447 235 499 q 172 331 172 394 q 203 215 172 268 q 288 130 235 162 q 405 99 340 99 z "},"µ":{"ha":749,"x_min":56,"x_max":693,"o":"m 56 -300 l 56 694 l 172 694 l 172 329 q 199 211 172 265 q 273 127 226 158 q 378 95 319 95 q 481 127 436 95 q 551 211 526 158 q 576 329 576 265 l 576 694 l 693 694 l 693 0 l 576 0 l 576 108 q 484 15 539 49 q 361 -19 429 -19 q 253 9 302 -19 q 172 80 205 36 l 172 -300 l 56 -300 z "},"%":{"ha":933,"x_min":56,"x_max":877,"o":"m 118 0 l 679 972 l 814 972 l 253 0 l 118 0 m 233 581 q 144 605 184 581 q 80 669 104 628 q 56 758 56 709 q 80 849 56 809 q 144 913 104 889 q 233 936 185 936 q 322 912 282 936 q 386 848 363 888 q 410 758 410 808 q 386 668 410 708 q 322 605 362 628 q 233 581 281 581 m 233 667 q 298 693 272 667 q 325 758 325 720 q 298 824 325 797 q 233 851 272 851 q 168 824 195 851 q 141 758 141 797 q 168 693 141 720 q 233 667 195 667 m 699 35 q 610 60 651 35 q 545 125 569 85 q 522 213 522 166 q 546 303 522 263 q 611 367 571 344 q 699 391 651 391 q 790 366 749 391 q 853 301 830 342 q 877 213 877 261 q 853 124 877 164 q 789 59 829 83 q 699 35 749 35 m 699 121 q 765 148 738 121 q 792 213 792 175 q 765 278 792 251 q 699 306 738 306 q 634 278 661 306 q 607 213 607 251 q 634 148 607 175 q 699 121 661 121 z "},"‰":{"ha":1314,"x_min":56,"x_max":1258,"o":"m 118 0 l 679 972 l 814 972 l 253 0 l 118 0 m 233 581 q 144 605 184 581 q 80 669 104 628 q 56 758 56 709 q 80 849 56 809 q 144 913 104 889 q 233 936 185 936 q 322 912 282 936 q 386 848 363 888 q 410 758 410 808 q 386 668 410 708 q 322 605 362 628 q 233 581 281 581 m 233 667 q 298 693 272 667 q 325 758 325 720 q 298 824 325 797 q 233 851 272 851 q 168 824 195 851 q 141 758 141 797 q 168 693 141 720 q 233 667 195 667 m 676 35 q 587 60 628 35 q 523 125 547 85 q 499 213 499 166 q 523 303 499 263 q 588 367 548 344 q 676 391 628 391 q 767 366 726 391 q 831 301 807 342 q 854 213 854 261 q 830 124 854 164 q 766 59 806 83 q 676 35 726 35 m 676 121 q 742 148 715 121 q 769 213 769 175 q 742 278 769 251 q 676 306 715 306 q 611 278 638 306 q 584 213 584 251 q 611 148 584 175 q 676 121 638 121 m 1081 35 q 991 60 1032 35 q 927 125 951 85 q 903 213 903 166 q 927 303 903 263 q 993 367 952 344 q 1081 391 1033 391 q 1172 366 1131 391 q 1235 301 1212 342 q 1258 213 1258 261 q 1235 124 1258 164 q 1170 59 1211 83 q 1081 35 1130 35 m 1081 121 q 1147 148 1119 121 q 1174 213 1174 175 q 1147 278 1174 251 q 1081 306 1119 306 q 1016 278 1043 306 q 989 213 989 251 q 1016 148 989 175 q 1081 121 1043 121 z "},"↑":{"ha":813,"x_min":56,"x_max":758,"o":"m 349 97 l 349 722 l 139 511 l 56 594 l 407 945 l 758 594 l 675 511 l 465 722 l 465 97 l 349 97 z "},"↗":{"ha":751,"x_min":56,"x_max":696,"o":"m 138 201 l 56 283 l 497 724 l 199 724 l 199 840 l 696 840 l 696 344 l 579 344 l 579 642 l 138 201 z "},"→":{"ha":959,"x_min":56,"x_max":903,"o":"m 552 170 l 469 253 l 678 463 l 56 463 l 56 579 l 678 579 l 469 789 l 552 872 l 903 521 l 552 170 z "},"↘":{"ha":751,"x_min":56,"x_max":696,"o":"m 200 201 l 200 318 l 497 318 l 56 758 l 138 840 l 579 400 l 579 697 l 696 697 l 696 201 l 200 201 z "},"↓":{"ha":813,"x_min":56,"x_max":757,"o":"m 406 97 l 56 448 l 138 531 l 347 321 l 347 944 l 464 944 l 464 321 l 674 531 l 757 448 l 406 97 z "},"↙":{"ha":751,"x_min":56,"x_max":696,"o":"m 56 201 l 56 697 l 172 697 l 172 400 l 613 840 l 696 758 l 255 318 l 551 318 l 551 201 l 56 201 z "},"←":{"ha":958,"x_min":56,"x_max":903,"o":"m 406 170 l 56 521 l 406 872 l 488 789 l 278 579 l 903 579 l 903 463 l 278 463 l 488 253 l 406 170 z "},"↖":{"ha":752,"x_min":56,"x_max":697,"o":"m 614 201 l 172 642 l 172 345 l 56 345 l 56 841 l 551 841 l 551 724 l 256 724 l 697 283 l 614 201 z "},"↔":{"ha":1199,"x_min":56,"x_max":1144,"o":"m 406 170 l 56 521 l 406 872 l 488 789 l 278 579 l 919 579 l 710 789 l 792 872 l 1144 521 l 792 170 l 710 253 l 919 463 l 278 463 l 488 253 l 406 170 z "},"↕":{"ha":813,"x_min":56,"x_max":758,"o":"m 406 -24 l 56 328 l 138 410 l 348 200 l 348 842 l 138 632 l 56 715 l 406 1065 l 758 715 l 674 632 l 465 842 l 465 200 l 674 410 l 758 328 l 406 -24 z "},"◊":{"ha":641,"x_min":42,"x_max":599,"o":"m 228 0 l 42 488 l 226 972 l 415 972 l 599 488 l 413 0 l 228 0 m 320 93 l 477 488 l 320 882 l 165 488 l 320 93 z "},"@":{"ha":1222,"x_min":56,"x_max":1166,"o":"m 611 -141 q 395 -103 496 -141 q 218 6 294 -65 q 99 172 142 76 q 56 383 56 268 q 99 598 56 497 q 218 775 142 699 q 395 894 294 851 q 611 938 496 938 q 828 894 727 938 q 1005 774 928 851 q 1123 598 1081 698 q 1166 383 1166 497 q 1151 264 1166 323 q 1108 158 1136 206 q 1039 81 1080 110 q 944 52 997 52 q 864 70 903 52 q 796 121 824 89 q 765 192 769 153 q 692 130 736 153 q 591 106 648 106 q 452 143 515 106 q 352 243 390 181 q 315 383 315 306 q 352 522 315 459 q 452 621 390 584 q 591 658 515 658 q 694 636 646 658 q 769 577 742 614 l 769 644 l 860 628 l 860 241 q 884 189 860 210 q 938 169 908 169 q 1002 203 977 169 q 1038 287 1026 238 q 1049 383 1049 337 q 1015 553 1049 474 q 920 693 981 633 q 781 787 860 753 q 611 821 701 821 q 441 787 521 821 q 301 693 362 753 q 207 553 241 633 q 172 383 172 474 q 206 217 172 292 q 301 88 240 142 q 441 5 361 34 q 611 -25 520 -25 l 611 -141 m 599 197 q 688 225 651 197 q 747 297 726 253 q 767 390 767 341 q 748 477 767 436 q 691 542 728 517 q 599 567 653 567 q 506 542 548 567 q 440 476 465 517 q 415 383 415 434 q 440 289 415 331 q 507 222 465 247 q 599 197 549 197 z "},"&":{"ha":987,"x_min":56,"x_max":931,"o":"m 342 -18 q 194 22 258 -18 q 92 128 129 63 q 56 269 56 194 q 65 347 56 314 q 96 413 74 381 q 158 487 119 445 q 260 590 198 528 q 201 652 224 626 q 164 699 177 677 q 145 742 151 720 q 140 794 140 765 q 167 897 140 851 q 241 970 195 943 q 342 997 288 997 q 444 969 398 997 q 517 897 490 942 q 544 794 544 851 q 539 741 544 764 q 519 697 533 718 q 482 650 506 675 q 424 590 459 624 l 664 351 l 822 510 l 822 345 l 745 267 l 931 83 l 849 0 l 664 184 q 559 83 601 122 q 485 21 517 43 q 420 -10 453 -1 q 342 -18 387 -18 m 342 99 q 396 106 374 99 q 442 132 419 113 q 498 183 465 150 q 581 268 530 216 l 342 508 q 256 421 289 454 q 205 365 222 388 q 180 320 187 342 q 173 267 173 298 q 196 181 173 219 q 258 121 219 143 q 342 99 296 99 m 342 658 q 404 719 383 699 q 433 756 425 740 q 440 795 440 771 q 410 866 440 838 q 342 894 381 894 q 273 865 301 894 q 244 795 244 835 q 253 755 244 771 q 282 717 261 738 q 342 658 303 697 z "},"¶":{"ha":633,"x_min":56,"x_max":577,"o":"m 292 -210 l 292 499 q 173 531 226 499 q 88 616 119 563 q 56 735 56 670 q 88 855 56 801 q 173 940 119 908 q 292 972 226 972 l 408 972 l 408 -210 l 292 -210 m 460 -210 l 460 972 l 577 972 l 577 -210 l 460 -210 z "},"§":{"ha":752,"x_min":83,"x_max":669,"o":"m 378 -273 q 224 -237 294 -273 q 121 -140 155 -201 l 215 -85 q 251 -128 226 -109 q 307 -159 275 -147 q 370 -171 338 -170 q 446 -160 411 -172 q 502 -124 481 -149 q 523 -65 523 -100 q 501 -9 523 -29 q 442 22 478 10 q 362 42 406 33 q 217 98 280 56 q 119 203 154 139 q 83 347 83 267 q 105 453 83 403 q 164 543 126 504 q 252 603 202 582 q 152 660 185 622 q 119 757 119 698 q 155 869 119 822 q 249 941 191 916 q 374 967 308 967 q 528 931 458 967 q 631 834 597 896 l 538 779 q 501 823 526 803 q 446 853 477 842 q 382 865 415 865 q 307 855 342 867 q 250 819 272 843 q 229 760 229 794 q 250 705 229 724 q 308 674 272 685 q 389 653 344 663 q 536 597 473 637 q 634 494 599 556 q 669 347 669 432 q 647 240 669 290 q 587 150 626 189 q 499 92 549 112 q 600 34 567 72 q 633 -62 633 -3 q 597 -175 633 -128 q 503 -248 561 -222 q 378 -273 445 -273 m 381 154 q 472 181 431 154 q 539 250 514 207 q 564 344 564 294 q 537 449 564 405 q 465 517 510 493 q 369 540 421 540 q 280 514 321 540 q 213 443 238 487 q 188 347 188 399 q 215 249 188 292 q 285 180 241 206 q 381 154 328 154 z "},"©":{"ha":1272,"x_min":56,"x_max":1216,"o":"m 635 -169 q 410 -124 515 -169 q 225 0 305 -79 q 100 185 145 80 q 56 410 56 290 q 100 636 56 531 q 225 821 145 741 q 410 945 305 901 q 635 990 515 990 q 861 945 756 990 q 1046 821 966 901 q 1171 636 1126 741 q 1216 410 1216 531 q 1171 185 1216 290 q 1046 0 1126 80 q 861 -124 966 -79 q 635 -169 756 -169 m 635 -53 q 818 -16 733 -53 q 965 84 902 20 q 1064 232 1028 149 q 1099 410 1099 316 q 1063 591 1099 506 q 963 739 1026 675 q 815 839 899 803 q 635 874 731 874 q 454 836 538 873 q 307 736 370 800 q 208 589 244 672 q 172 410 172 506 q 209 228 172 313 q 310 81 246 144 q 458 -18 374 17 q 635 -53 542 -53 m 813 247 l 917 190 q 797 85 869 124 q 640 45 725 45 q 465 94 544 45 q 339 227 386 144 q 292 410 292 310 q 319 553 292 487 q 394 670 347 619 q 505 749 442 720 q 640 777 568 777 q 797 738 725 777 q 917 631 869 698 l 813 575 q 734 639 780 617 q 640 660 688 660 q 523 626 575 660 q 440 535 470 592 q 409 410 409 478 q 440 286 409 343 q 524 196 472 230 q 640 162 576 162 q 736 185 691 162 q 813 247 782 209 z "},"®":{"ha":715,"x_min":42,"x_max":674,"o":"m 357 310 q 234 335 292 310 q 134 403 177 360 q 66 504 90 447 q 42 626 42 561 q 66 747 42 690 q 134 848 91 804 q 235 916 178 892 q 357 941 292 941 q 482 916 424 941 q 582 847 539 891 q 650 745 626 802 q 674 626 674 689 q 649 503 674 560 q 581 403 624 447 q 480 334 538 359 q 357 310 423 310 m 357 398 q 472 429 420 398 q 554 511 523 460 q 585 626 585 563 q 554 740 585 688 q 472 822 523 792 q 357 853 420 853 q 243 822 294 853 q 161 740 192 792 q 130 626 130 688 q 161 511 130 563 q 243 429 192 460 q 357 398 294 398 m 269 491 l 269 774 l 376 774 q 435 748 411 774 q 459 687 459 723 q 445 639 459 660 q 407 608 431 617 l 476 491 l 410 491 l 344 601 l 327 601 l 327 491 l 269 491 m 327 658 l 376 658 q 394 667 387 658 q 401 687 401 676 q 394 708 401 700 q 376 716 387 716 l 327 716 l 327 658 z "},"™":{"ha":2052,"x_min":56,"x_max":1969,"o":"m 819 972 l 819 856 l 495 856 l 495 0 l 378 0 l 378 856 l 56 856 l 56 972 l 819 972 m 888 0 l 1076 972 l 1166 972 l 1428 282 l 1690 972 l 1780 972 l 1969 0 l 1850 0 l 1713 706 l 1467 53 l 1390 53 l 1143 706 l 1007 0 l 888 0 z "},"°":{"ha":528,"x_min":56,"x_max":473,"o":"m 265 542 q 159 570 206 542 q 83 647 111 599 q 56 750 56 694 q 84 854 56 807 q 159 930 112 901 q 265 958 206 958 q 371 930 324 958 q 445 853 418 901 q 473 750 473 806 q 444 644 473 692 q 369 569 416 597 q 265 542 322 542 m 265 658 q 330 685 303 658 q 356 750 356 712 q 330 815 356 789 q 265 842 303 842 q 199 815 226 842 q 172 750 172 789 q 199 685 172 712 q 265 658 226 658 z "},"|":{"ha":311,"x_min":97,"x_max":214,"o":"m 97 972 l 214 972 l 214 -210 l 97 -210 l 97 972 z "},"¦":{"ha":283,"x_min":83,"x_max":200,"o":"m 83 311 l 200 311 l 200 -210 l 83 -210 l 83 311 m 83 972 l 200 972 l 200 451 l 83 451 l 83 972 z "},"†":{"ha":561,"x_min":56,"x_max":506,"o":"m 56 748 l 56 865 l 222 865 l 222 1042 l 339 1042 l 339 865 l 506 865 l 506 748 l 339 748 l 339 404 l 222 404 l 222 748 l 56 748 z "},"‡":{"ha":561,"x_min":56,"x_max":506,"o":"m 56 533 l 56 649 l 222 649 l 222 779 l 56 779 l 56 896 l 222 896 l 222 1042 l 339 1042 l 339 896 l 506 896 l 506 779 l 339 779 l 339 649 l 506 649 l 506 533 l 339 533 l 339 389 l 222 389 l 222 533 l 56 533 z "},"�":{"ha":1132,"x_min":83,"x_max":1049,"o":"m 567 -18 q 493 -4 529 -18 q 428 39 457 10 l 140 326 q 97 392 111 356 q 83 465 83 428 q 98 539 83 503 q 140 603 113 575 l 428 890 q 493 933 457 919 q 567 947 529 947 q 640 933 604 947 q 704 890 675 919 l 992 603 q 1035 538 1021 574 q 1049 465 1049 503 q 1035 392 1049 428 q 992 326 1021 356 l 704 39 q 640 -3 676 11 q 567 -18 604 -18 m 571 206 q 602 218 590 206 q 614 249 614 231 q 602 279 614 267 q 571 291 590 291 q 541 279 553 291 q 528 249 528 267 q 541 218 528 231 q 571 206 553 206 m 526 358 l 611 358 l 611 360 q 619 388 611 375 q 641 409 627 401 q 701 467 678 430 q 723 550 723 505 q 701 630 723 594 q 644 688 680 666 q 564 709 608 709 q 484 688 520 709 q 426 630 447 666 q 404 550 404 594 l 490 550 q 511 602 490 581 q 564 624 533 624 q 616 602 594 624 q 638 550 638 581 q 627 511 638 529 q 601 484 617 493 q 545 433 565 467 q 526 360 526 399 l 526 358 z "},"ʼ":{"ha":303,"x_min":28,"x_max":188,"o":"m 28 610 l 71 972 l 188 972 l 106 610 l 28 610 z "},"̈":{"ha":0,"x_min":278,"x_max":642,"o":"m 344 787 q 297 805 317 787 q 278 850 278 823 q 297 896 278 877 q 344 915 317 915 q 389 896 370 915 q 408 850 408 877 q 389 805 408 823 q 344 787 370 787 m 577 787 q 531 805 550 787 q 512 850 512 823 q 531 896 512 877 q 577 915 550 915 q 623 896 603 915 q 642 850 642 877 q 623 805 642 823 q 577 787 603 787 z "},"̇":{"ha":0,"x_min":278,"x_max":407,"o":"m 342 822 q 297 840 315 822 q 278 885 278 858 q 297 930 278 912 q 342 948 315 948 q 388 930 369 948 q 407 885 407 912 q 388 840 407 858 q 342 822 369 822 z "},"̀":{"ha":0,"x_min":222,"x_max":394,"o":"m 222 990 l 339 990 l 394 790 l 337 790 l 222 990 z "},"́":{"ha":0,"x_min":333,"x_max":506,"o":"m 333 790 l 389 990 l 506 990 l 391 790 l 333 790 z "},"̂":{"ha":0,"x_min":278,"x_max":527,"o":"m 348 972 l 458 972 l 527 810 l 448 810 l 403 918 l 357 810 l 278 810 l 348 972 z "},"̊":{"ha":0,"x_min":278,"x_max":508,"o":"m 393 759 q 311 794 345 759 q 278 876 278 828 q 293 933 278 907 q 335 974 309 958 q 393 990 361 990 q 474 956 440 990 q 508 876 508 922 q 474 793 508 827 q 393 759 440 759 m 393 812 q 438 830 419 812 q 456 876 456 849 q 438 919 456 901 q 393 937 419 937 q 349 919 367 937 q 331 876 331 901 q 349 830 331 849 q 393 812 367 812 z "},"̃":{"ha":0,"x_min":203,"x_max":667,"o":"m 542 772 q 484 788 516 772 q 419 826 451 805 q 359 862 386 848 q 317 871 333 876 q 293 848 301 865 q 292 805 285 831 l 217 785 q 213 866 203 828 q 252 928 222 905 q 325 952 281 952 q 383 937 351 952 q 447 902 415 922 q 506 867 479 882 q 549 852 533 852 q 572 863 564 852 q 580 890 579 874 q 576 917 581 905 l 651 942 q 656 857 667 896 q 615 795 645 819 q 542 772 585 772 z "},"̧":{"ha":0,"x_min":278,"x_max":580,"o":"m 278 -212 l 278 -122 l 329 -122 q 408 -99 372 -122 q 467 -41 444 -77 q 489 38 489 -4 l 489 90 l 580 90 l 580 39 q 546 -88 580 -31 q 455 -179 513 -145 q 328 -212 397 -212 l 278 -212 z "},"¨":{"ha":919,"x_min":278,"x_max":642,"o":"m 344 787 q 297 805 317 787 q 278 850 278 823 q 297 896 278 877 q 344 915 317 915 q 389 896 370 915 q 408 850 408 877 q 389 805 408 823 q 344 787 370 787 m 577 787 q 531 805 550 787 q 512 850 512 823 q 531 896 512 877 q 577 915 550 915 q 623 896 603 915 q 642 850 642 877 q 623 805 642 823 q 577 787 603 787 z "},"˙":{"ha":685,"x_min":278,"x_max":407,"o":"m 342 822 q 297 840 315 822 q 278 885 278 858 q 297 930 278 912 q 342 948 315 948 q 388 930 369 948 q 407 885 407 912 q 388 840 407 858 q 342 822 369 822 z "},"`":{"ha":728,"x_min":222,"x_max":394,"o":"m 222 990 l 339 990 l 394 790 l 337 790 l 222 990 z "},"´":{"ha":728,"x_min":333,"x_max":506,"o":"m 333 790 l 389 990 l 506 990 l 391 790 l 333 790 z "},"˝":{"ha":550,"x_min":294,"x_max":537,"o":"m 294 790 l 350 990 l 467 990 l 352 790 l 294 790 m 365 1086 l 420 1286 l 537 1286 l 422 1086 l 365 1086 z "},"ˆ":{"ha":805,"x_min":278,"x_max":527,"o":"m 348 972 l 458 972 l 527 810 l 448 810 l 403 918 l 357 810 l 278 810 l 348 972 z "},"ˇ":{"ha":416,"x_min":83,"x_max":333,"o":"m 153 810 l 83 972 l 163 972 l 208 864 l 253 972 l 333 972 l 263 810 l 153 810 z "},"˘":{"ha":794,"x_min":167,"x_max":628,"o":"m 397 783 q 282 815 334 783 q 198 898 229 846 q 167 1014 167 951 l 246 1014 q 267 937 246 971 q 323 883 288 903 q 397 863 357 863 q 473 883 439 863 q 528 938 508 903 q 549 1014 549 972 l 628 1014 q 596 897 628 949 q 512 814 565 844 q 397 783 460 783 z "},"˚":{"ha":786,"x_min":278,"x_max":508,"o":"m 393 759 q 311 794 345 759 q 278 876 278 828 q 293 933 278 907 q 335 974 309 958 q 393 990 361 990 q 474 956 440 990 q 508 876 508 922 q 474 793 508 827 q 393 759 440 759 m 393 812 q 438 830 419 812 q 456 876 456 849 q 438 919 456 901 q 393 937 419 937 q 349 919 367 937 q 331 876 331 901 q 349 830 331 849 q 393 812 367 812 z "},"˜":{"ha":841,"x_min":195,"x_max":659,"o":"m 534 741 q 476 758 508 741 q 411 796 444 774 q 352 832 378 817 q 310 840 325 846 q 286 817 294 835 q 285 774 278 800 l 210 754 q 205 836 195 797 q 244 898 215 874 q 317 922 274 922 q 375 906 344 922 q 439 871 407 891 q 498 836 472 851 q 541 822 525 822 q 564 833 556 822 q 572 859 572 844 q 568 887 573 874 l 644 911 q 648 827 659 865 q 607 765 638 788 q 534 741 577 741 z "},"¯":{"ha":833,"x_min":182,"x_max":651,"o":"m 182 956 l 651 956 l 651 839 l 182 839 l 182 956 z "},"¸":{"ha":858,"x_min":278,"x_max":580,"o":"m 278 -212 l 278 -122 l 329 -122 q 408 -99 372 -122 q 467 -41 444 -77 q 489 38 489 -4 l 489 90 l 580 90 l 580 39 q 546 -88 580 -31 q 455 -179 513 -145 q 328 -212 397 -212 l 278 -212 z "},"˛":{"ha":781,"x_min":182,"x_max":484,"o":"m 434 -274 q 307 -240 364 -274 q 216 -149 250 -206 q 182 -22 182 -92 l 182 43 l 273 43 l 273 -24 q 295 -102 273 -65 q 354 -160 317 -138 q 433 -183 391 -183 l 484 -183 l 484 -274 l 434 -274 z "}}}
